<?xml version="1.0" encoding="UTF-8" standalone="no"?>
<!-- Created with Inkscape (http://www.inkscape.org/) -->

<svg
   version="1.1"
   id="svg1"
   width="1440.4532"
   height="455.65601"
   viewBox="0 0 1440.4532 455.65601"
   sodipodi:docname="logo samybusiness 2.ai"
   xmlns:inkscape="http://www.inkscape.org/namespaces/inkscape"
   xmlns:sodipodi="http://sodipodi.sourceforge.net/DTD/sodipodi-0.dtd"
   xmlns="http://www.w3.org/2000/svg"
   xmlns:svg="http://www.w3.org/2000/svg">
  <defs
     id="defs1">
    <clipPath
       clipPathUnits="userSpaceOnUse"
       id="clipPath78">
      <path
         d="M 0,341.742 H 1080.344 V 0 H 0 Z"
         transform="translate(-578.92601,-168.7254)"
         id="path78" />
    </clipPath>
    <clipPath
       clipPathUnits="userSpaceOnUse"
       id="clipPath80">
      <path
         d="M 0,341.742 H 1080.344 V 0 H 0 Z"
         transform="translate(-802.69595,-301.40181)"
         id="path80" />
    </clipPath>
    <clipPath
       clipPathUnits="userSpaceOnUse"
       id="clipPath82">
      <path
         d="M 0,341.742 H 1080.344 V 0 H 0 Z"
         transform="translate(-985.74162,-300.97311)"
         id="path82" />
    </clipPath>
    <clipPath
       clipPathUnits="userSpaceOnUse"
       id="clipPath84">
      <path
         d="M 0,341.742 H 1080.344 V 0 H 0 Z"
         transform="translate(-295.67598,-113.33541)"
         id="path84" />
    </clipPath>
    <clipPath
       clipPathUnits="userSpaceOnUse"
       id="clipPath86">
      <path
         d="M 0,341.742 H 1080.344 V 0 H 0 Z"
         transform="translate(-412.50671,-115.3938)"
         id="path86" />
    </clipPath>
    <clipPath
       clipPathUnits="userSpaceOnUse"
       id="clipPath88">
      <path
         d="M 0,341.742 H 1080.344 V 0 H 0 Z"
         transform="translate(-512.99479,-76.658102)"
         id="path88" />
    </clipPath>
    <clipPath
       clipPathUnits="userSpaceOnUse"
       id="clipPath90">
      <path
         d="M 0,341.742 H 1080.344 V 0 H 0 Z"
         transform="translate(-551.85574,-115.3938)"
         id="path90" />
    </clipPath>
    <clipPath
       clipPathUnits="userSpaceOnUse"
       id="clipPath92">
      <path
         d="M 0,341.742 H 1080.344 V 0 H 0 Z"
         transform="translate(-663.13444,-115.3938)"
         id="path92" />
    </clipPath>
    <clipPath
       clipPathUnits="userSpaceOnUse"
       id="clipPath94">
      <path
         d="M 0,341.742 H 1080.344 V 0 H 0 Z"
         transform="translate(-774.16272,-42.164101)"
         id="path94" />
    </clipPath>
    <clipPath
       clipPathUnits="userSpaceOnUse"
       id="clipPath96">
      <path
         d="M 0,341.742 H 1080.344 V 0 H 0 Z"
         transform="translate(-873.527,-76.658102)"
         id="path96" />
    </clipPath>
    <clipPath
       clipPathUnits="userSpaceOnUse"
       id="clipPath98">
      <path
         d="M 0,341.742 H 1080.344 V 0 H 0 Z"
         transform="translate(-977.19545,-76.658102)"
         id="path98" />
    </clipPath>
    <clipPath
       clipPathUnits="userSpaceOnUse"
       id="clipPath100">
      <path
         d="M 0,341.742 H 1080.344 V 0 H 0 Z"
         transform="translate(-340.04013,-302.47361)"
         id="path100" />
    </clipPath>
    <clipPath
       clipPathUnits="userSpaceOnUse"
       id="clipPath102">
      <path
         d="M 0,341.742 H 1080.344 V 0 H 0 Z"
         transform="translate(-246.58541,-150.8505)"
         id="path102" />
    </clipPath>
    <clipPath
       clipPathUnits="userSpaceOnUse"
       id="clipPath104">
      <path
         d="M 0,341.742 H 1080.344 V 0 H 0 Z"
         transform="translate(-357.02553,-166.68141)"
         id="path104" />
    </clipPath>
    <clipPath
       clipPathUnits="userSpaceOnUse"
       id="clipPath106">
      <path
         d="M 0,341.742 H 1080.344 V 0 H 0 Z"
         transform="translate(-343.01928,-199.0453)"
         id="path106" />
    </clipPath>
    <clipPath
       clipPathUnits="userSpaceOnUse"
       id="clipPath108">
      <path
         d="M 0,341.742 H 1080.344 V 0 H 0 Z"
         transform="translate(-241.31853,-256.17931)"
         id="path108" />
    </clipPath>
    <clipPath
       clipPathUnits="userSpaceOnUse"
       id="clipPath110">
      <path
         d="M 0,341.742 H 1080.344 V 0 H 0 Z"
         transform="translate(-966.8972,-142.26711)"
         id="path110" />
    </clipPath>
    <clipPath
       clipPathUnits="userSpaceOnUse"
       id="clipPath112">
      <path
         d="M 0,341.742 H 1080.344 V 0 H 0 Z"
         transform="translate(-984.91272,-144.0975)"
         id="path112" />
    </clipPath>
    <clipPath
       clipPathUnits="userSpaceOnUse"
       id="clipPath114">
      <path
         d="M 0,341.742 H 1080.344 V 0 H 0 Z"
         transform="translate(-326.19641,-169.4854)"
         id="path114" />
    </clipPath>
    <clipPath
       clipPathUnits="userSpaceOnUse"
       id="clipPath116">
      <path
         d="M 0,341.742 H 1080.344 V 0 H 0 Z"
         transform="translate(-302.24778,-244.4146)"
         id="path116" />
    </clipPath>
    <clipPath
       clipPathUnits="userSpaceOnUse"
       id="clipPath118">
      <path
         d="M 0,341.742 H 1080.344 V 0 H 0 Z"
         transform="translate(-238.78698,-158.9671)"
         id="path118" />
    </clipPath>
    <clipPath
       clipPathUnits="userSpaceOnUse"
       id="clipPath120">
      <path
         d="M 0,341.742 H 1080.344 V 0 H 0 Z"
         transform="translate(-101.75973,-208.0693)"
         id="path120" />
    </clipPath>
    <clipPath
       clipPathUnits="userSpaceOnUse"
       id="clipPath122">
      <path
         d="M 0,341.742 H 1080.344 V 0 H 0 Z"
         transform="translate(-135.4345,-247.43361)"
         id="path122" />
    </clipPath>
    <clipPath
       clipPathUnits="userSpaceOnUse"
       id="clipPath124">
      <path
         d="M 0,341.742 H 1080.344 V 0 H 0 Z"
         transform="translate(-138.2938,-288.89381)"
         id="path124" />
    </clipPath>
    <clipPath
       clipPathUnits="userSpaceOnUse"
       id="clipPath126">
      <path
         d="M 0,341.742 H 1080.344 V 0 H 0 Z"
         transform="translate(-260.51208,-269.84911)"
         id="path126" />
    </clipPath>
    <clipPath
       clipPathUnits="userSpaceOnUse"
       id="clipPath128">
      <path
         d="M 0,341.742 H 1080.344 V 0 H 0 Z"
         transform="translate(-263.21171,-204.13051)"
         id="path128" />
    </clipPath>
    <clipPath
       clipPathUnits="userSpaceOnUse"
       id="clipPath130">
      <path
         d="M 0,341.742 H 1080.344 V 0 H 0 Z"
         transform="translate(-260.13798,-204.26161)"
         id="path130" />
    </clipPath>
    <clipPath
       clipPathUnits="userSpaceOnUse"
       id="clipPath132">
      <path
         d="M 0,341.742 H 1080.344 V 0 H 0 Z"
         transform="translate(-171.53763,-249.6682)"
         id="path132" />
    </clipPath>
    <clipPath
       clipPathUnits="userSpaceOnUse"
       id="clipPath134">
      <path
         d="M 0,341.742 H 1080.344 V 0 H 0 Z"
         transform="translate(-219.59193,-247.63111)"
         id="path134" />
    </clipPath>
    <clipPath
       clipPathUnits="userSpaceOnUse"
       id="clipPath136">
      <path
         d="M 0,341.742 H 1080.344 V 0 H 0 Z"
         transform="translate(-206.49978,-206.09241)"
         id="path136" />
    </clipPath>
    <clipPath
       clipPathUnits="userSpaceOnUse"
       id="clipPath138">
      <path
         d="M 0,341.742 H 1080.344 V 0 H 0 Z"
         transform="translate(-169.94538,-247.5154)"
         id="path138" />
    </clipPath>
    <clipPath
       clipPathUnits="userSpaceOnUse"
       id="clipPath140">
      <path
         d="M 0,341.742 H 1080.344 V 0 H 0 Z"
         transform="translate(-172.8538,-244.9393)"
         id="path140" />
    </clipPath>
    <clipPath
       clipPathUnits="userSpaceOnUse"
       id="clipPath142">
      <path
         d="M 0,341.742 H 1080.344 V 0 H 0 Z"
         transform="translate(-101.72988,-269.25201)"
         id="path142" />
    </clipPath>
    <clipPath
       clipPathUnits="userSpaceOnUse"
       id="clipPath144">
      <path
         d="M 0,341.742 H 1080.344 V 0 H 0 Z"
         transform="translate(-133.4275,-241.71261)"
         id="path144" />
    </clipPath>
    <clipPath
       clipPathUnits="userSpaceOnUse"
       id="clipPath146">
      <path
         d="M 0,341.742 H 1080.344 V 0 H 0 Z"
         transform="translate(-167.71308,-234.5572)"
         id="path146" />
    </clipPath>
    <clipPath
       clipPathUnits="userSpaceOnUse"
       id="clipPath148">
      <path
         d="M 0,341.742 H 1080.344 V 0 H 0 Z"
         transform="translate(-135.4345,-247.43361)"
         id="path148" />
    </clipPath>
    <clipPath
       clipPathUnits="userSpaceOnUse"
       id="clipPath150">
      <path
         d="M 0,341.742 H 1080.344 V 0 H 0 Z"
         transform="translate(-138.2938,-288.89381)"
         id="path150" />
    </clipPath>
    <clipPath
       clipPathUnits="userSpaceOnUse"
       id="clipPath152">
      <path
         d="M 0,341.742 H 1080.344 V 0 H 0 Z"
         transform="translate(-127.2427,-284.74981)"
         id="path152" />
    </clipPath>
  </defs>
  <sodipodi:namedview
     id="namedview1"
     pagecolor="#ffffff"
     bordercolor="#000000"
     borderopacity="0.25"
     inkscape:showpageshadow="2"
     inkscape:pageopacity="0.0"
     inkscape:pagecheckerboard="0"
     inkscape:deskcolor="#d1d1d1">
    <inkscape:page
       x="0"
       y="0"
       inkscape:label="2"
       id="page76"
       width="1440.4532"
       height="455.65601"
       margin="22.586134 116.072 18.5 38.0588"
       bleed="0" />
  </sodipodi:namedview>
  <g
     id="layer-MC0"
     inkscape:groupmode="layer"
     inkscape:label="Layer 1"
     transform="translate(-1592.7467)">
    <path
       id="path77"
       d="m 0,0 c 1.571,-3.43 1.678,-6.896 0.322,-10.396 -1.36,-3.503 -3.751,-6.038 -7.181,-7.609 -1.715,-0.857 -3.573,-1.286 -5.573,-1.286 -2.572,0 -5.003,0.714 -7.287,2.144 -2.288,1.427 -4.002,3.356 -5.144,5.787 L -72.447,93.452 c -1.859,3.999 -4.645,7.144 -8.359,9.431 -3.718,2.284 -7.716,3.43 -12.003,3.43 -4.431,0 -8.467,-1.146 -12.11,-3.43 -3.644,-2.287 -6.397,-5.432 -8.253,-9.431 L -160.969,-11.36 c -1.574,-3.43 -4.11,-5.787 -7.609,-7.073 -3.503,-1.286 -6.966,-1.142 -10.396,0.428 -3.429,1.571 -5.787,4.106 -7.073,7.609 -1.286,3.5 -1.146,6.966 0.429,10.396 l 47.583,104.598 c 4.143,8.858 10.251,15.931 18.326,21.22 8.071,5.284 17.04,7.93 26.9,7.93 9.715,0 18.647,-2.646 26.792,-7.93 8.145,-5.289 14.217,-12.362 18.219,-21.22 z"
       style="fill:#ffffff;fill-opacity:1;fill-rule:nonzero;stroke:none"
       transform="matrix(1.3333333,0,0,-1.3333333,2364.648,230.6888)"
       clip-path="url(#clipPath78)" />
    <path
       id="path79"
       d="m 0,0 c 2.428,-1.145 4.394,-2.823 5.894,-5.037 1.501,-2.217 2.251,-4.752 2.251,-7.609 v -125.603 c 0,-3.858 -1.323,-7.11 -3.965,-9.753 -2.646,-2.646 -5.824,-3.965 -9.538,-3.965 -3.718,0 -6.933,1.319 -9.646,3.965 -2.716,2.643 -4.072,5.895 -4.072,9.753 v 93.666 l -67.946,-65.373 c -2.431,-2.432 -5.573,-3.644 -9.431,-3.644 -3.858,0 -7.003,1.212 -9.431,3.644 l -67.946,65.373 v -93.666 c 0,-3.858 -1.36,-7.11 -4.072,-9.753 -2.716,-2.646 -5.931,-3.965 -9.645,-3.965 -3.718,0 -6.896,1.319 -9.539,3.965 -2.645,2.643 -3.965,5.895 -3.965,9.753 v 125.603 c 0,2.857 0.75,5.392 2.251,7.609 1.5,2.214 3.463,3.892 5.894,5.037 2.572,1.142 5.178,1.464 7.823,0.965 2.643,-0.503 4.964,-1.752 6.966,-3.751 l 81.664,-78.449 81.664,78.449 c 1.999,1.999 4.32,3.248 6.966,3.751 C -5.181,1.464 -2.572,1.142 0,0"
       style="fill:#ffffff;fill-opacity:1;fill-rule:nonzero;stroke:none"
       transform="matrix(1.3333333,0,0,-1.3333333,2663.0079,53.786933)"
       clip-path="url(#clipPath80)" />
    <path
       id="path81"
       d="m 0,0 c 3.429,-1.715 5.713,-4.361 6.859,-7.931 1.142,-3.573 0.857,-7.073 -0.857,-10.502 l -19.077,-37.938 c -2.86,-5.433 -6.36,-10.433 -10.502,-15.004 -4.147,-4.575 -8.932,-8.503 -14.361,-11.789 -6.718,-4.146 -13.862,-6.932 -21.434,-8.359 v -46.298 c 0,-3.858 -1.323,-7.11 -3.966,-9.752 -2.645,-2.646 -5.823,-3.965 -9.538,-3.965 -3.717,0 -6.932,1.319 -9.645,3.965 -2.716,2.642 -4.072,5.894 -4.072,9.752 v 46.298 c -7.717,1.571 -14.864,4.357 -21.434,8.359 -5.289,3.286 -10.004,7.214 -14.147,11.789 -4.146,4.571 -7.646,9.571 -10.502,15.004 l -19.291,37.938 c -1.715,3.429 -1.966,6.929 -0.75,10.502 1.212,3.57 3.463,6.216 6.751,7.931 3.286,1.715 6.752,1.963 10.396,0.75 3.644,-1.215 6.323,-3.466 8.038,-6.751 l 19.076,-37.939 c 3.429,-6.859 8.322,-12.217 14.682,-16.075 6.357,-3.858 13.323,-5.787 20.898,-5.787 7.573,0 14.502,1.929 20.791,5.787 6.286,3.858 11.146,9.216 14.576,16.075 l 19.29,37.939 c 1.715,3.285 4.357,5.536 7.931,6.751 C -6.718,1.963 -3.289,1.715 0,0"
       style="fill:#ffffff;fill-opacity:1;fill-rule:nonzero;stroke:none"
       transform="matrix(1.3333333,0,0,-1.3333333,2907.0688,54.358533)"
       clip-path="url(#clipPath82)" />
    <path
       id="path83"
       d="m 0,0 c 3.201,-1.372 5.988,-3.244 8.358,-5.614 2.371,-2.37 4.242,-5.158 5.614,-8.358 1.372,-3.203 2.059,-6.593 2.059,-10.168 0,-3.577 -0.667,-6.923 -1.996,-10.042 -1.332,-3.119 -3.162,-5.885 -5.489,-8.296 2.327,-2.33 4.157,-5.053 5.489,-8.171 1.329,-3.119 1.996,-6.468 1.996,-10.043 v -0.125 c 0,-3.66 -0.687,-7.07 -2.059,-10.23 -1.372,-3.161 -3.243,-5.925 -5.614,-8.296 -2.37,-2.37 -5.157,-4.241 -8.358,-5.613 -3.203,-1.373 -6.592,-2.059 -10.167,-2.059 h -59.632 c -2.164,0 -4.013,0.768 -5.551,2.308 -1.54,1.538 -2.308,3.431 -2.308,5.676 0,2.162 0.768,4.012 2.308,5.552 1.538,1.538 3.387,2.308 5.551,2.308 h 59.632 c 2.826,0 5.239,0.998 7.235,2.994 1.996,1.996 2.994,4.448 2.994,7.36 v 0.125 c 0,2.91 -0.998,5.364 -2.994,7.36 -1.996,1.996 -4.409,2.994 -7.235,2.994 h -59.632 c -2.164,0 -4.013,0.768 -5.551,2.308 -1.54,1.538 -2.308,3.388 -2.308,5.552 0,2.245 0.768,4.136 2.308,5.676 1.538,1.538 3.387,2.308 5.551,2.308 h 59.632 c 2.826,0 5.239,0.998 7.235,2.994 1.996,1.996 2.994,4.448 2.994,7.36 0,2.827 -0.998,5.259 -2.994,7.298 -1.996,2.037 -4.409,3.057 -7.235,3.057 h -59.632 c -2.164,0 -4.013,0.768 -5.551,2.308 -1.54,1.538 -2.308,3.387 -2.308,5.551 0,2.162 0.768,4.033 2.308,5.614 1.538,1.579 3.387,2.37 5.551,2.37 h 59.632 C -6.592,2.058 -3.203,1.372 0,0"
       style="fill:#ffffff;fill-opacity:1;fill-rule:nonzero;stroke:none"
       transform="matrix(1.3333333,0,0,-1.3333333,1986.9813,304.54213)"
       clip-path="url(#clipPath84)" />
    <path
       id="path85"
       d="m 0,0 c 2.162,0 4.011,-0.791 5.551,-2.37 1.538,-1.581 2.308,-3.452 2.308,-5.614 v -36.553 c 0,-2.994 -0.23,-5.906 -0.686,-8.732 -0.458,-2.829 -1.144,-5.532 -2.058,-8.109 -1.831,-5.489 -4.659,-10.314 -8.483,-14.471 -3.992,-4.326 -8.776,-7.61 -14.347,-9.856 -5.573,-2.245 -11.727,-3.368 -18.463,-3.368 h -5.614 c -6.737,0 -12.871,1.123 -18.401,3.368 -5.532,2.246 -10.292,5.53 -14.284,9.856 -3.827,4.157 -6.655,8.982 -8.483,14.471 -1.915,5.239 -2.87,10.853 -2.87,16.841 v 36.553 c 0,2.162 0.79,4.033 2.371,5.614 1.579,1.579 3.45,2.37 5.614,2.37 2.161,0 4.032,-0.791 5.613,-2.37 1.579,-1.581 2.371,-3.452 2.371,-5.614 v -36.553 c 0,-3.493 0.499,-6.945 1.497,-10.354 0.998,-3.411 2.598,-6.468 4.803,-9.169 2.202,-2.704 5.093,-4.909 8.67,-6.612 3.575,-1.706 7.941,-2.558 13.099,-2.558 h 5.614 c 5.239,0 9.647,0.852 13.224,2.558 3.574,1.703 6.465,3.908 8.67,6.612 2.202,2.701 3.805,5.758 4.803,9.169 0.998,3.409 1.497,6.861 1.497,10.354 v 36.553 c 0,2.162 0.789,4.033 2.37,5.614 C -4.035,-0.791 -2.164,0 0,0"
       style="fill:#ffffff;fill-opacity:1;fill-rule:nonzero;stroke:none"
       transform="matrix(1.3333333,0,0,-1.3333333,2142.7556,301.7976)"
       clip-path="url(#clipPath86)" />
    <path
       id="path87"
       d="m 0,0 c 3.201,-1.372 5.988,-3.244 8.358,-5.614 2.371,-2.37 4.242,-5.157 5.614,-8.358 1.373,-3.203 2.059,-6.593 2.059,-10.167 0,-3.661 -0.686,-7.07 -2.059,-10.23 -1.372,-3.162 -3.243,-5.926 -5.614,-8.296 -2.37,-2.371 -5.157,-4.242 -8.358,-5.614 -3.203,-1.372 -6.592,-2.059 -10.167,-2.059 h -54.268 c -2.163,0 -4.034,0.769 -5.613,2.308 -1.581,1.538 -2.371,3.431 -2.371,5.677 0,2.161 0.79,4.011 2.371,5.551 1.579,1.538 3.45,2.308 5.613,2.308 h 54.268 c 2.91,0 5.364,0.998 7.36,2.994 1.996,1.996 2.994,4.448 2.994,7.361 0,2.91 -0.998,5.364 -2.994,7.36 -1.996,1.996 -4.45,2.994 -7.36,2.994 H -51.46 c -3.661,0 -7.07,0.686 -10.23,2.058 -3.162,1.373 -5.926,3.244 -8.296,5.614 -2.37,2.37 -4.241,5.156 -5.614,8.359 -1.372,3.2 -2.058,6.59 -2.058,10.167 0,3.575 0.686,6.965 2.058,10.167 1.373,3.201 3.244,6.008 5.614,8.421 2.37,2.411 5.134,4.304 8.296,5.676 3.16,1.372 6.569,2.059 10.23,2.059 H 2.807 c 2.162,0 4.033,-0.792 5.614,-2.371 1.579,-1.58 2.37,-3.452 2.37,-5.614 C 10.791,28.588 10,26.738 8.421,25.2 6.84,23.66 4.969,22.892 2.807,22.892 H -51.46 c -2.912,0 -5.365,-1.019 -7.361,-3.056 -1.996,-2.039 -2.994,-4.513 -2.994,-7.423 0,-2.829 0.998,-5.261 2.994,-7.298 1.996,-2.039 4.449,-3.057 7.361,-3.057 h 41.293 C -6.592,2.058 -3.203,1.372 0,0"
       style="fill:#ffffff;fill-opacity:1;fill-rule:nonzero;stroke:none"
       transform="matrix(1.3333333,0,0,-1.3333333,2276.7397,353.4452)"
       clip-path="url(#clipPath88)" />
    <path
       id="path89"
       d="m 0,0 c 2.162,0 4.033,-0.791 5.614,-2.37 1.579,-1.581 2.37,-3.452 2.37,-5.614 v -73.105 c 0,-2.246 -0.791,-4.138 -2.37,-5.676 -1.581,-1.54 -3.452,-2.308 -5.614,-2.308 -2.164,0 -4.014,0.768 -5.552,2.308 -1.539,1.538 -2.307,3.43 -2.307,5.676 v 73.105 c 0,2.162 0.768,4.033 2.307,5.614 C -4.014,-0.791 -2.164,0 0,0"
       style="fill:#ffffff;fill-opacity:1;fill-rule:nonzero;stroke:none"
       transform="matrix(1.3333333,0,0,-1.3333333,2328.5543,301.7976)"
       clip-path="url(#clipPath90)" />
    <path
       id="path91"
       d="m 0,0 c 2.162,0 4.011,-0.791 5.551,-2.37 1.538,-1.581 2.308,-3.452 2.308,-5.614 v -73.105 c 0,-1.665 -0.436,-3.14 -1.31,-4.429 -0.873,-1.29 -2.017,-2.267 -3.43,-2.931 -1.082,-0.418 -2.121,-0.624 -3.119,-0.624 -2.08,0 -3.91,0.705 -5.489,2.121 l -64.497,60.629 v -54.766 c 0,-2.246 -0.77,-4.138 -2.308,-5.676 -1.54,-1.54 -3.39,-2.308 -5.551,-2.308 -2.164,0 -4.035,0.768 -5.614,2.308 -1.581,1.538 -2.371,3.43 -2.371,5.676 v 73.105 c 0,1.579 0.437,3.013 1.31,4.304 0.874,1.288 2.059,2.265 3.556,2.931 1.413,0.665 2.888,0.874 4.428,0.624 1.538,-0.249 2.889,-0.957 4.055,-2.121 L -7.984,-62.75 v 54.766 c 0,2.162 0.768,4.033 2.308,5.614 C -4.138,-0.791 -2.246,0 0,0"
       style="fill:#ffffff;fill-opacity:1;fill-rule:nonzero;stroke:none"
       transform="matrix(1.3333333,0,0,-1.3333333,2476.9259,301.7976)"
       clip-path="url(#clipPath92)" />
    <path
       id="path93"
       d="m 0,0 c 2.162,0 4.033,-0.77 5.614,-2.308 1.579,-1.54 2.37,-3.39 2.37,-5.551 0,-2.246 -0.791,-4.139 -2.37,-5.677 C 4.033,-15.075 2.162,-15.844 0,-15.844 h -77.845 c -2.164,0 -4.014,0.769 -5.552,2.308 -1.54,1.538 -2.308,3.431 -2.308,5.677 0,2.161 0.768,4.011 2.308,5.551 1.538,1.538 3.388,2.308 5.552,2.308 z m 0,36.552 c 2.162,0 4.033,-0.77 5.614,-2.307 1.579,-1.54 2.37,-3.39 2.37,-5.552 0,-2.164 -0.791,-4.035 -2.37,-5.614 C 4.033,21.498 2.162,20.709 0,20.709 h -77.845 c -2.164,0 -4.014,0.789 -5.552,2.37 -1.54,1.579 -2.308,3.45 -2.308,5.614 0,2.162 0.768,4.012 2.308,5.552 1.538,1.537 3.388,2.307 5.552,2.307 z M 0,73.23 c 2.162,0 4.033,-0.792 5.614,-2.371 1.579,-1.58 2.37,-3.452 2.37,-5.614 0,-2.163 -0.791,-4.013 -2.37,-5.551 C 4.033,58.154 2.162,57.386 0,57.386 h -77.845 c -2.164,0 -4.014,0.768 -5.552,2.308 -1.54,1.538 -2.308,3.388 -2.308,5.551 0,2.162 0.768,4.034 2.308,5.614 1.538,1.579 3.388,2.371 5.552,2.371 z"
       style="fill:#ffffff;fill-opacity:1;fill-rule:nonzero;stroke:none"
       transform="matrix(1.3333333,0,0,-1.3333333,2624.9636,399.4372)"
       clip-path="url(#clipPath94)" />
    <path
       id="path95"
       d="m 0,0 c 3.201,-1.372 5.988,-3.244 8.358,-5.614 2.371,-2.37 4.242,-5.157 5.614,-8.358 1.373,-3.203 2.059,-6.593 2.059,-10.167 0,-3.661 -0.686,-7.07 -2.059,-10.23 -1.372,-3.162 -3.243,-5.926 -5.614,-8.296 -2.37,-2.371 -5.157,-4.242 -8.358,-5.614 -3.203,-1.372 -6.592,-2.059 -10.167,-2.059 h -112.962 c -2.163,0 -4.035,0.769 -5.613,2.308 -1.581,1.538 -2.371,3.431 -2.371,5.677 0,2.161 0.79,4.011 2.371,5.551 1.578,1.538 3.45,2.308 5.613,2.308 h 112.962 c 2.91,0 5.364,0.998 7.36,2.994 1.996,1.996 2.994,4.448 2.994,7.361 0,2.91 -0.998,5.364 -2.994,7.36 -1.996,1.996 -4.45,2.994 -7.36,2.994 H -51.46 c -3.661,0 -7.07,0.686 -10.23,2.058 -3.162,1.373 -5.926,3.244 -8.296,5.614 -2.37,2.37 -4.241,5.156 -5.614,8.359 -1.372,3.2 -2.058,6.59 -2.058,10.167 0,3.575 0.686,6.965 2.058,10.167 1.373,3.201 3.244,6.008 5.614,8.421 2.37,2.411 5.134,4.304 8.296,5.676 3.16,1.372 6.569,2.059 10.23,2.059 H 2.807 c 2.162,0 4.033,-0.792 5.614,-2.371 1.579,-1.58 2.37,-3.452 2.37,-5.614 C 10.791,28.588 10,26.738 8.421,25.2 6.84,23.66 4.969,22.892 2.807,22.892 H -51.46 c -2.912,0 -5.365,-1.019 -7.361,-3.056 -1.996,-2.039 -2.994,-4.513 -2.994,-7.423 0,-2.829 0.998,-5.261 2.994,-7.298 1.996,-2.039 4.449,-3.057 7.361,-3.057 h 41.293 C -6.592,2.058 -3.203,1.372 0,0"
       style="fill:#ffffff;fill-opacity:1;fill-rule:nonzero;stroke:none"
       transform="matrix(1.3333333,0,0,-1.3333333,2757.4493,353.4452)"
       clip-path="url(#clipPath96)" />
    <path
       id="path97"
       d="m 0,0 c 3.201,-1.372 5.988,-3.244 8.358,-5.614 2.371,-2.37 4.242,-5.157 5.614,-8.358 1.373,-3.203 2.059,-6.593 2.059,-10.167 0,-3.661 -0.686,-7.07 -2.059,-10.23 -1.372,-3.162 -3.243,-5.926 -5.614,-8.296 -2.37,-2.371 -5.157,-4.242 -8.358,-5.614 -3.203,-1.372 -6.592,-2.059 -10.167,-2.059 h -54.268 c -2.163,0 -4.034,0.769 -5.613,2.308 -1.581,1.538 -2.371,3.431 -2.371,5.677 0,2.161 0.79,4.011 2.371,5.551 1.579,1.538 3.45,2.308 5.613,2.308 h 54.268 c 2.91,0 5.364,0.998 7.36,2.994 1.996,1.996 2.994,4.448 2.994,7.361 0,2.91 -0.998,5.364 -2.994,7.36 -1.996,1.996 -4.45,2.994 -7.36,2.994 H -51.46 c -3.661,0 -7.07,0.686 -10.23,2.058 -3.162,1.373 -5.926,3.244 -8.296,5.614 -2.37,2.37 -4.241,5.156 -5.614,8.359 -1.372,3.2 -2.058,6.59 -2.058,10.167 0,3.575 0.686,6.965 2.058,10.167 1.373,3.201 3.244,6.008 5.614,8.421 2.37,2.411 5.134,4.304 8.296,5.676 3.16,1.372 6.569,2.059 10.23,2.059 H 2.807 c 2.162,0 4.033,-0.792 5.614,-2.371 1.579,-1.58 2.37,-3.452 2.37,-5.614 C 10.791,28.588 10,26.738 8.421,25.2 6.84,23.66 4.969,22.892 2.807,22.892 H -51.46 c -2.912,0 -5.365,-1.019 -7.361,-3.056 -1.996,-2.039 -2.994,-4.513 -2.994,-7.423 0,-2.829 0.998,-5.261 2.994,-7.298 1.996,-2.039 4.449,-3.057 7.361,-3.057 h 41.293 C -6.592,2.058 -3.203,1.372 0,0"
       style="fill:#ffffff;fill-opacity:1;fill-rule:nonzero;stroke:none"
       transform="matrix(1.3333333,0,0,-1.3333333,2895.6739,353.4452)"
       clip-path="url(#clipPath98)" />
    <path
       id="path99"
       d="m 0,0 -0.305,25.393 40.647,-50.786 -88.606,0.31 V 0 Z"
       style="fill:#ffffff;fill-opacity:1;fill-rule:nonzero;stroke:none"
       transform="matrix(1.3333333,0,0,-1.3333333,2046.1335,52.357867)"
       clip-path="url(#clipPath100)" />
    <path
       id="path101"
       d="M 0,0 0.305,-25.393 -40.342,25.393 48.264,25.362 V 0.328 Z"
       style="fill:#ffffff;fill-opacity:1;fill-rule:nonzero;stroke:none"
       transform="matrix(1.3333333,0,0,-1.3333333,1921.5272,254.522)"
       clip-path="url(#clipPath102)" />
    <path
       id="path103"
       d="m 0,0 c 2.414,18.218 -3.851,32.161 -17.851,42.691 -5.456,4.104 -11.752,6.054 -18.662,6.034 -19.896,-0.056 -39.794,-0.139 -59.689,0.008 -18.316,0.135 -32.316,7.943 -40.773,24.469 -8.47,16.55 -4.145,38.464 9.656,50.77 0.254,0.226 0.561,0.394 1.266,0.881 -2.658,-6.362 -3.316,-12.47 -2.523,-18.837 1.838,-14.752 13.434,-28.326 27.215,-31.379 2.662,-0.59 5.456,-0.801 8.191,-0.811 20.049,-0.073 40.105,0.268 60.146,-0.159 C -16.652,73.319 -3.494,66.261 5.258,52.118 14.503,37.178 13.364,16.875 2.839,3.259 2.061,2.253 1.169,1.335 0,0"
       style="fill:#ffffff;fill-opacity:1;fill-rule:nonzero;stroke:none"
       transform="matrix(1.3333333,0,0,-1.3333333,2068.7807,233.41413)"
       clip-path="url(#clipPath104)" />
    <path
       id="path105"
       d="m 0,0 c 4.922,-5.368 7.672,-11.231 8.889,-17.813 1.165,-6.299 0.713,-12.486 -1.663,-18.503 -0.997,-2.526 -4.459,-5.967 -6.841,-7.347 -6.645,-3.849 -11.846,-4.258 -19.53,-4.254 -28.767,0.016 -57.534,-0.002 -86.301,0.001 -5.861,10e-4 -10.411,3.074 -12.278,8.245 -1.788,4.951 -0.391,10.399 3.554,13.791 2.566,2.205 5.586,2.976 8.925,2.972 27.696,-0.031 55.397,0.307 83.085,-0.178 C -9.121,-23.314 0.955,-14.11 0,0"
       style="fill:#ffffff;fill-opacity:1;fill-rule:nonzero;stroke:none"
       transform="matrix(1.3333333,0,0,-1.3333333,2050.1057,190.26227)"
       clip-path="url(#clipPath106)" />
    <path
       id="path107"
       d="m 0,0 c -4.019,4.662 -6.298,9.563 -7.402,15.043 -1.882,9.338 0.133,17.784 5.952,25.287 0.759,0.979 1.884,1.805 3.009,2.345 5.557,2.665 11.507,3.572 17.613,3.577 28.847,0.027 57.694,0.047 86.542,0.042 7.339,-0.002 12.833,-5.358 12.875,-12.437 0.043,-7.305 -5.285,-12.582 -12.875,-12.583 C 77.785,21.267 49.851,21.017 21.928,21.458 9.156,21.66 -0.059,12.203 0,0"
       style="fill:#ffffff;fill-opacity:1;fill-rule:nonzero;stroke:none"
       transform="matrix(1.3333333,0,0,-1.3333333,1914.5047,114.0836)"
       clip-path="url(#clipPath108)" />
    <path
       id="path109"
       d="M 0,0 H 3.261 V -8.823 H 5.448 V 0 H 8.695 V 1.83 H 0 Z"
       style="fill:#ffffff;fill-opacity:1;fill-rule:nonzero;stroke:none"
       transform="matrix(1.3333333,0,0,-1.3333333,2881.9429,265.96653)"
       clip-path="url(#clipPath110)" />
    <path
       id="path111"
       d="M 0,0 C 0,0 -2.416,-7.673 -2.494,-8.024 -2.573,-7.667 -5.019,0 -5.019,0 h -3.325 v -10.654 h 2.173 c 0,0 -0.076,8.44 -0.078,8.542 0.038,-0.139 2.831,-8.542 2.831,-8.542 h 1.831 c 0,0 2.768,8.479 2.812,8.648 -0.003,-0.145 -0.081,-8.648 -0.081,-8.648 H 3.332 V 0 Z"
       style="fill:#ffffff;fill-opacity:1;fill-rule:nonzero;stroke:none"
       transform="matrix(1.3333333,0,0,-1.3333333,2905.9636,263.526)"
       clip-path="url(#clipPath112)" />
    <path
       id="path113"
       d="m 0,0 c 3.538,-61.357 -33.636,-121.957 -96.482,-144.146 -61.663,-21.771 -124.476,1.071 -158.437,42.158 4.665,0.555 9.163,1.09 13.662,1.626 17.4,2.071 34.047,6.979 50.257,13.461 1.948,0.779 3.676,0.918 5.65,0.354 24.829,-7.095 49.679,-14.115 74.488,-21.275 2.386,-0.688 3.723,-0.415 5.076,1.762 2.308,3.715 4.857,7.298 7.522,10.769 1.45,1.889 1.809,3.401 0.377,5.493 -1.538,2.245 -2.569,4.829 -4.026,7.137 -1.275,2.018 -1.255,3.049 1.144,4.389 18.567,10.372 36.484,21.772 53.55,34.482 16.493,12.284 31.72,25.938 45.132,41.561 C -1.528,-1.577 -0.914,-0.972 0,0"
       style="fill:#ffffff;fill-opacity:1;fill-rule:nonzero;stroke:none"
       transform="matrix(1.3333333,0,0,-1.3333333,2027.6752,229.67547)"
       clip-path="url(#clipPath114)" />
    <path
       id="path115"
       d="M 0,0 C 0.38,1.581 1.349,1.883 2.564,1.79 10.234,1.203 17.862,0.318 24.949,-2.927 35.916,-7.947 39.825,-16.974 36.35,-29.36 33.063,-41.079 26.28,-50.896 18.899,-60.314 0.824,-83.38 -21.27,-102.026 -45.408,-118.411 c -15.882,-10.782 -32.319,-20.646 -49.24,-29.7 -2.099,-1.123 -2.649,-1.917 -1.274,-4.125 2.544,-4.084 4.735,-8.389 7.054,-12.611 0.458,-0.833 1.17,-1.632 0.35,-2.687 -0.721,-0.927 -1.595,-0.584 -2.399,-0.355 -19.16,5.458 -38.315,10.939 -57.469,16.42 -0.096,0.028 -0.17,0.135 -0.383,0.31 9.002,4.288 18.001,8.429 26.873,12.824 33.183,16.436 64.883,35.256 93.565,58.831 14.835,12.194 28.749,25.33 39.956,41.055 3.837,5.383 6.841,11.198 8.012,17.815 1.455,8.223 -1.777,14.389 -9.354,17.865 C 7.064,-1.292 3.621,-0.68 0,0"
       style="fill:#ffffff;fill-opacity:1;fill-rule:nonzero;stroke:none"
       transform="matrix(1.3333333,0,0,-1.3333333,1995.7437,129.76987)"
       clip-path="url(#clipPath116)" />
    <path
       id="path117"
       d="m 0,0 c -6.536,-4.608 -12.969,-9.313 -19.571,-13.768 -28.478,-19.216 -58.02,-36.496 -90.039,-49.27 -20.829,-8.309 -42.382,-13.23 -64.819,-13.865 -7.876,-0.223 -15.78,0.214 -23.297,3.023 -14.669,5.481 -14.121,17.464 -9.994,28.065 0.321,0.825 0.875,1.149 1.799,0.968 0.935,-0.183 1.195,-0.673 1.244,-1.585 0.403,-7.44 5.516,-10.428 11.767,-12.292 8.41,-2.508 16.905,-1.414 25.334,-0.312 26.64,3.484 50.953,14.055 75.052,25.124 16.265,7.47 31.697,16.425 46.126,27.069 1.824,1.346 2.345,2.27 1.008,4.381 -2.812,4.436 -5.289,9.084 -7.908,13.643 -0.551,0.96 -1.127,1.833 -0.24,2.989 0.858,1.118 1.906,0.989 2.958,0.694 C -33.932,10.192 -17.292,5.493 -0.655,0.784 -0.488,0.736 -0.383,0.469 0,0"
       style="fill:#ffffff;fill-opacity:1;fill-rule:nonzero;stroke:none"
       transform="matrix(1.3333333,0,0,-1.3333333,1911.1293,243.69987)"
       clip-path="url(#clipPath118)" />
    <path
       id="path119"
       d="m 0,0 c 0.918,-2.583 -1.301,-3.627 -2.764,-4.061 -3.045,-0.903 -3.924,-3.612 -4.753,-5.729 -0.746,-1.904 -1.637,-3.551 -2.648,-5.296 -1.481,-2.555 -1.869,-5.253 0.427,-7.968 2.173,-2.57 2.299,-5.903 1.523,-9.054 -0.326,-1.323 -0.28,-1.981 0.855,-2.64 0.879,-0.511 1.505,-1.27 1.519,-2.375 0.016,-1.225 0.743,-2.241 1.645,-2.698 4.991,-2.532 8.371,-7.283 13.518,-9.6 3.151,-1.419 6.243,-1.846 9.474,-0.423 0.399,0.176 0.814,0.409 1.232,0.433 5.072,0.287 9.718,1.953 14.281,4.079 2.209,1.03 4.439,1.371 6.303,-1.214 1.155,-1.602 3.224,-0.931 4.927,-0.542 3.172,0.724 5.407,-0.893 5.467,-4.097 0.024,-1.308 -0.197,-2.619 -0.202,-3.929 -0.014,-3.957 0.308,-4.463 3.967,-6.437 -7.109,-4.869 -14.435,-9.133 -22.144,-12.742 -23.744,-11.116 -48.705,-18.315 -74.433,-23.025 -3.865,-0.708 -7.662,-1.736 -11.609,-2.095 -2.431,-0.222 -3.539,0.657 -4.276,2.844 -3.904,11.581 -6.949,23.304 -8.151,35.548 -2.848,29.019 2.14,56.515 15.452,82.424 3.268,6.36 6.939,12.571 11.543,18.135 1.086,-0.137 1.416,-0.818 1.41,-1.831 -0.053,-8.762 1.28,-17.714 -4.396,-25.579 C -43.2,10.234 -43.856,7.794 -44.669,5.544 -46.117,1.537 -45.479,0.763 -41.253,0.66 -27.504,0.328 -13.731,1.457 0,0"
       style="fill:#ffffff;fill-opacity:1;fill-rule:nonzero;stroke:none"
       transform="matrix(1.3333333,0,0,-1.3333333,1728.4263,178.23027)"
       clip-path="url(#clipPath120)" />
    <path
       id="path121"
       d="M 0,0 C -0.191,0.792 -0.633,1.615 -1.636,1.575 -2.609,1.536 -3.241,0.756 -3.105,-0.208 -2.974,-1.136 -2.185,-1.73 -1.254,-1.731 -0.314,-1.733 -0.085,-0.936 0,0 m 32.279,-12.876 c 1.432,-1.361 3.072,-0.788 4.591,-0.794 0.525,-0.002 1.223,0.1 1.092,0.795 -0.081,0.426 -0.588,0.974 -1.011,1.095 -1.656,0.474 -3.121,-0.166 -4.672,-1.096 m -34.286,7.155 c 0.203,-1.111 -0.459,-2.973 1.485,-3.231 1.338,-0.177 1.723,1.294 1.553,2.352 -0.201,1.254 0.181,3.176 -1.835,3.279 -1.403,0.071 -1.102,-1.297 -1.203,-2.4 m -31.668,-33.643 c -13.731,1.457 -27.504,0.328 -41.253,0.66 -4.226,0.102 -4.864,0.877 -3.416,4.884 0.813,2.25 1.47,4.69 2.836,6.584 5.676,7.865 4.344,16.817 4.396,25.579 0.006,1.012 -0.324,1.694 -1.41,1.831 7.914,11.558 17.63,21.368 28.869,29.701 1.723,-2.701 0.471,-5.698 0.855,-8.531 0.179,-1.324 -0.655,-3.142 1.052,-3.768 1.327,-0.487 2.303,0.854 3.312,1.674 1.407,1.141 2.656,2.631 4.729,2.568 3.177,-1.378 -0.032,-3.322 0.309,-5.165 2.586,1.329 4.979,3.553 7.372,3.553 3.547,0 4.757,1.465 5.38,4.363 1.135,-0.26 2.27,-0.52 3.405,-0.78 -3.47,-1.515 -3.201,-6.712 -7.866,-7.556 -1.393,-0.252 -3.628,-2.362 -5.029,-3.854 -2.032,-2.165 0.929,-2.614 2.138,-2.948 4.578,-1.267 6.171,-3.705 5.266,-8.225 -0.335,-1.673 -1.239,-2.629 -2.712,-2.859 -2.474,-0.387 -4.943,-0.964 -7.495,-0.709 -3.342,0.335 -4.687,-0.844 -3.912,-4.018 0.812,-3.33 1.787,-6.434 -0.099,-9.76 -0.638,-1.125 3.278,-4.434 4.685,-3.951 1.19,0.409 2.263,0.625 3.482,0.21 4.734,-1.611 11.704,3.375 11.641,8.531 -0.028,2.326 0.522,4.037 2.457,5.303 1.765,1.156 1.645,2.991 1.515,4.726 -0.139,1.862 0.239,2.927 2.445,2.697 2.19,-0.229 3.923,0.675 5.533,2.269 2.661,2.634 4.971,2.393 7.041,-0.712 2.257,-3.385 5.426,-4.847 9.308,-5.322 1.675,-0.205 4.139,-0.362 3.892,-2.551 -0.202,-1.785 -0.647,-4.413 -3.829,-4.305 -0.97,0.033 -2.944,-0.528 -2.608,-1.89 0.461,-1.864 2.786,-1.106 4.203,-1.777 1.159,-0.55 1.79,0.299 1.682,1.568 -0.09,1.068 0.196,1.884 1.306,2.364 2.678,1.159 -0.13,5.366 3.353,6.125 -0.179,0.382 -0.316,1.069 -0.543,1.1 C 16.011,-1.402 14.741,1.412 12.146,1.71 8.376,2.144 6.751,5.067 4.997,7.831 4.643,8.39 4.433,9.096 4.945,9.649 5.443,10.187 6.218,10.081 6.804,9.869 7.719,9.538 8.705,9.166 9.406,8.53 11.603,6.537 13.709,4.605 16.928,4.273 18.296,4.132 19.437,2.919 19.894,1.45 c 0.505,-1.623 1.593,-2.823 2.665,-4.068 1.746,-2.027 4.499,-3.146 5.307,-6.076 0.138,-0.498 1.543,-1.562 2.146,-0.826 0.778,0.949 1.597,3.217 1.256,3.49 -1.397,1.117 -0.83,2.664 -1.373,3.906 -1.498,3.424 -1.417,3.46 2.382,3.566 0.125,-1.469 1.266,-1.272 2.234,-1.36 -0.617,-2.318 1.239,-1.764 2.377,-2.044 0.177,-0.177 0.354,-0.355 0.531,-0.532 0.123,-1.902 -0.551,-4.318 1.872,-5.104 2.406,-0.78 5.021,-1.834 7.471,0.192 2.049,1.694 3.121,0.3 3.858,-1.427 0.354,-0.83 -0.117,-2.185 1.301,-2.243 1.382,-0.057 2.159,1.041 2.642,2.145 0.51,1.165 0.756,2.446 1.127,3.711 3.01,-3.666 3.181,-5.576 0.752,-9.253 -0.4,-0.606 -0.405,-1.209 -0.484,-1.85 -0.337,-2.73 -2.101,-3.676 -4.6,-3.453 -1.114,0.099 -2.212,0.445 -3.003,-0.623 -1.218,-1.642 -2.904,-1.195 -4.508,-1.07 -0.418,0.033 -0.817,0.435 -1.224,0.435 -3.846,-0.007 -7.538,-0.063 -11.404,1.276 -3.164,1.097 -4.625,-1.347 -3.744,-4.851 0.257,-1.022 0.62,-2.172 -0.445,-3.019 -1.104,-0.877 -1.977,0.01 -2.998,0.349 -4.62,1.531 -8.702,4.651 -14.116,3.843 -3.705,-0.554 -4.378,0.666 -3.467,4.258 0.732,2.886 -2.539,6.446 -5.19,5.287 -3.71,-1.623 -7.729,-2.038 -11.458,-3.539 -2.286,-0.921 -4.655,-1.564 -6.537,-3.256 -2.487,-2.235 -5.448,-2.561 -8.595,-2.112 -1.803,0.257 -3.701,-0.08 -3.845,-2.038 -0.201,-2.708 -1.991,-4.141 -3.419,-6.002 -1.961,-2.555 -1.338,-5.601 -1.08,-8.526"
       style="fill:#ffffff;fill-opacity:1;fill-rule:nonzero;stroke:none"
       transform="matrix(1.3333333,0,0,-1.3333333,1773.326,125.74453)"
       clip-path="url(#clipPath122)" />
    <path
       id="path123"
       d="M 0,0 C -1.617,-0.245 -3.282,-0.355 -4.791,-1.653 -2.124,-3.525 -1.392,-0.859 0,0 m -36.564,-19.642 c -2.073,0.063 -3.322,-1.427 -4.729,-2.569 -1.01,-0.819 -1.985,-2.16 -3.312,-1.673 -1.708,0.626 -0.873,2.444 -1.053,3.768 -0.383,2.833 0.869,5.83 -0.854,8.53 9.097,7.256 19.005,13.121 29.678,17.795 11.555,5.06 23.477,9.096 35.923,10.783 15.062,2.042 30.139,2.132 45.389,-0.154 20.199,-3.027 38.595,-10.084 55.82,-20.698 0.919,-0.566 1.747,-1.28 2.617,-1.925 -1.277,-4.365 -0.384,-8.844 -0.697,-13.26 -8.742,5.851 -17.64,11.406 -27.388,15.503 C 80.677,2.408 65.975,5.812 50.645,6.861 38.073,7.721 25.712,6.569 13.436,4.038 11.841,3.709 8.867,4.012 11.224,0.618 12.123,-0.677 10.772,-2.277 9.681,-3.343 8.915,-4.089 7.795,-4.919 6.764,-4.039 c -2.42,2.065 -3.702,0.326 -5.13,-1.27 -1.17,-1.308 -9.63,-2.259 -11.121,-1.307 -0.726,0.464 -0.925,1.181 -1.076,1.943 0.096,0.177 0.318,0.416 0.267,0.519 -0.206,0.419 -0.496,0.226 -0.755,0.01 -1.32,-0.273 -2.396,-0.522 -1.137,-2.254 1.561,-2.148 0.834,-3.501 -1.686,-4.31 -3.369,-1.08 -5.437,-3.493 -6.224,-6.963 -1.135,0.26 -2.27,0.52 -3.405,0.78 -1.501,4.957 -2.462,5.367 -6.365,2.942 -2.528,-1.57 -4.901,-3.281 -6.696,-5.693"
       style="fill:#ffffff;fill-opacity:1;fill-rule:nonzero;stroke:none"
       transform="matrix(1.3333333,0,0,-1.3333333,1777.1384,70.464267)"
       clip-path="url(#clipPath124)" />
    <path
       id="path125"
       d="m 0,0 c 0.312,4.416 -0.58,8.894 0.696,13.259 9.73,-6.73 19.095,-13.883 27.019,-22.762 8.014,-8.98 15.024,-18.656 20.782,-29.238 0.851,-1.563 0.827,-2.641 -0.363,-4.034 -7.159,-8.378 -14.673,-16.423 -22.419,-24.257 -0.308,1.805 -1.745,1.301 -2.836,1.306 -6.726,0.032 -13.453,0.011 -20.179,0.007 2.794,6.243 1.91,13.343 4.583,19.619 1.022,2.4 1.869,4.876 2.933,7.256 0.314,0.704 0.657,1.907 1.723,1.654 0.903,-0.214 0.977,-1.382 1.148,-2.172 0.251,-1.16 0.196,-2.384 0.317,-3.576 0.079,-0.774 -0.792,-1.972 0.423,-2.235 1.482,-0.321 1.775,1.177 1.886,2.153 0.37,3.249 0.678,6.519 0.749,9.786 0.128,5.895 0.131,11.789 -0.539,17.672 -0.17,1.494 -0.965,2.33 -1.875,3.271 C 9.706,-7.803 4.75,-4.02 0,0"
       style="fill:#ffffff;fill-opacity:1;fill-rule:nonzero;stroke:none"
       transform="matrix(1.3333333,0,0,-1.3333333,1940.0961,95.8572)"
       clip-path="url(#clipPath126)" />
    <path
       id="path127"
       d="m 0,0 c 6.727,0.003 13.453,0.024 20.179,-0.007 1.092,-0.006 2.529,0.499 2.836,-1.307 C 16.979,-6.341 12.428,-12.823 6.56,-18.026 0.802,-23.13 -4.837,-28.368 -10.495,-33.582 c -1.227,-1.131 -2.39,-1.575 -4.12,-1.028 -8.392,2.653 -16.826,5.175 -25.273,7.752 -0.163,1.111 0.402,2.071 1.007,2.622 3.675,3.342 3.318,7.978 4.198,12.232 0.174,0.837 0.251,1.608 -0.534,1.987 -0.689,0.333 -1.146,-0.41 -1.636,-0.811 -1.181,-0.964 -2.263,-2.091 -3.557,-2.866 -3.638,-2.176 -5.079,-1.769 -7.55,1.619 -0.693,0.949 -1.581,1.88 -2.589,2.447 -1.881,1.058 -3.205,2.486 -4.229,4.365 -0.774,1.421 -1.797,2.684 -3.411,3.402 -0.992,0.441 -1.788,1.284 -1.742,2.562 0.655,1.486 1.975,1.275 3.219,1.261 4.495,-1.981 8.215,-4.577 8.463,-10.134 0.081,-1.822 1.42,-2.357 2.754,-1.521 4.339,2.72 8.556,5.632 12.79,8.515 0.301,0.205 0.357,0.771 0.526,1.169 9.702,0.046 19.404,0.093 29.105,0.14 C -2.094,-0.974 -1.077,-1.186 0,0"
       style="fill:#ffffff;fill-opacity:1;fill-rule:nonzero;stroke:none"
       transform="matrix(1.3333333,0,0,-1.3333333,1943.6956,183.482)"
       clip-path="url(#clipPath128)" />
    <path
       id="path129"
       d="m 0,0 c -9.702,-0.047 -19.403,-0.094 -29.105,-0.14 -0.451,1.536 0.79,1.744 1.72,2.287 4.639,2.709 5.738,7.423 6.679,12.152 0.341,1.714 -0.645,2.876 -2.287,3.506 -0.91,0.35 -1.982,0.655 -2.591,1.331 -1.438,1.597 -2.001,0.937 -2.973,-0.523 -1.878,-2.822 -3.852,-2.642 -5.53,0.276 -0.163,0.283 -0.264,0.723 -0.504,0.822 -5.725,2.364 -5.566,4.035 -7.873,8.834 -0.09,0.188 -0.089,0.42 -0.168,0.826 2.691,-0.144 5.217,0.211 6.525,-3.233 1.277,-3.36 3.79,-4.02 7.241,-2.296 1.454,0.727 2.302,0.537 3.744,-0.147 3.354,-1.592 6.998,-1.258 10.473,-0.134 1.966,0.636 6.609,-0.981 7.325,-2.817 1.321,-3.386 1.918,-3.477 4.751,-0.29 C -2.787,13.256 1.588,7.061 0,0"
       style="fill:#ffffff;fill-opacity:1;fill-rule:nonzero;stroke:none"
       transform="matrix(1.3333333,0,0,-1.3333333,1939.5973,183.3072)"
       clip-path="url(#clipPath130)" />
    <path
       id="path131"
       d="m 0,0 c 2.442,1.178 3.228,2.445 1.564,5.243 -1.426,2.397 -1.736,5.439 0.829,7.829 0.451,0.42 0.799,1.102 0.903,1.712 0.222,1.3 0.211,3.204 1.719,3.089 1.487,-0.113 3.486,-0.485 4.273,-2.295 1.292,-2.967 2.936,-2.827 4.984,-0.769 1.223,1.229 2.209,1.269 3.808,0.037 1.549,-1.193 3.876,-1.324 5.763,-2.148 2.158,-0.943 3.79,-2.436 2.661,-5.089 C 25.54,5.346 22.359,4.093 20.225,5.052 15.633,7.115 11.655,7.168 7.719,3.162 5.953,1.365 3.434,-0.521 0.349,-0.367 0.229,-0.246 0.113,-0.124 0,0"
       style="fill:#ffffff;fill-opacity:1;fill-rule:nonzero;stroke:none"
       transform="matrix(1.3333333,0,0,-1.3333333,1821.4635,122.76507)"
       clip-path="url(#clipPath132)" />
    <path
       id="path133"
       d="m 0,0 c -3.083,0.076 -5.678,2.667 -5.628,6.426 0.037,2.782 -0.744,4.781 -2.837,6.505 -0.908,0.748 -1.541,1.837 -2.267,2.795 -3.458,4.556 -3.156,7.486 1.104,11.491 1.082,1.017 2.296,1.319 3.603,0.744 1.391,-0.613 1.781,-1.986 1.612,-3.309 -0.161,-1.256 -0.392,-2.886 -1.232,-3.602 -2.869,-2.448 -0.127,-2.96 1.187,-3.179 3.931,-0.654 5.312,-3.026 5.242,-6.65 C 0.765,10.235 1.285,9.651 1.897,8.981 2.697,8.105 3.45,7.134 3.988,6.084 5.888,2.377 4.229,-0.104 0,0"
       style="fill:#ffffff;fill-opacity:1;fill-rule:nonzero;stroke:none"
       transform="matrix(1.3333333,0,0,-1.3333333,1885.5359,125.4812)"
       clip-path="url(#clipPath134)" />
    <path
       id="path135"
       d="m 0,0 c -1.244,0.014 -2.564,0.225 -3.219,-1.261 -3.797,4.694 -5.696,10.764 -10.901,14.867 1.025,0.212 1.3,1.723 2.72,0.49 2.961,-2.573 6.048,-5.004 9.124,-7.442 C -1.238,5.832 -1.424,4.685 -1.342,3.657 -1.232,2.28 -0.552,1.178 0,0"
       style="fill:#ffffff;fill-opacity:1;fill-rule:nonzero;stroke:none"
       transform="matrix(1.3333333,0,0,-1.3333333,1868.0797,180.86613)"
       clip-path="url(#clipPath136)" />
    <path
       id="path137"
       d="M 0,0 C -0.967,0.088 -2.109,-0.109 -2.234,1.36 -1.087,2.244 0.314,1.903 1.593,2.152 1.705,2.029 1.821,1.907 1.941,1.786 1.295,1.189 0.647,0.595 0,0"
       style="fill:#ffffff;fill-opacity:1;fill-rule:nonzero;stroke:none"
       transform="matrix(1.3333333,0,0,-1.3333333,1819.3405,125.63547)"
       clip-path="url(#clipPath138)" />
    <path
       id="path139"
       d="M 0,0 C -0.177,0.177 -0.354,0.355 -0.531,0.532 -0.097,0.611 0.08,0.434 0,0"
       style="fill:#ffffff;fill-opacity:1;fill-rule:nonzero;stroke:none"
       transform="matrix(1.3333333,0,0,-1.3333333,1823.2184,129.07027)"
       clip-path="url(#clipPath140)" />
    <path
       id="path141"
       d="M 0,0 C 1.795,2.411 4.168,4.122 6.695,5.693 10.599,8.118 11.56,7.708 13.061,2.751 12.437,-0.148 11.228,-1.612 7.68,-1.612 5.288,-1.612 2.895,-3.837 0.308,-5.166 -0.032,-3.323 3.177,-1.378 0,0"
       style="fill:#ffffff;fill-opacity:1;fill-rule:nonzero;stroke:none"
       transform="matrix(1.3333333,0,0,-1.3333333,1728.3865,96.653333)"
       clip-path="url(#clipPath142)" />
    <path
       id="path143"
       d="M 0,0 C 0.101,1.103 -0.2,2.471 1.203,2.4 3.219,2.297 2.837,0.375 3.038,-0.879 3.208,-1.937 2.823,-3.408 1.485,-3.231 -0.459,-2.973 0.203,-1.111 0,0"
       style="fill:#ffffff;fill-opacity:1;fill-rule:nonzero;stroke:none"
       transform="matrix(1.3333333,0,0,-1.3333333,1770.65,133.37253)"
       clip-path="url(#clipPath144)" />
    <path
       id="path145"
       d="M 0,0 C 1.552,0.93 3.016,1.57 4.673,1.097 5.095,0.976 5.602,0.427 5.683,0.002 5.815,-0.694 5.117,-0.796 4.592,-0.794 3.073,-0.788 1.433,-1.361 0,0"
       style="fill:#ffffff;fill-opacity:1;fill-rule:nonzero;stroke:none"
       transform="matrix(1.3333333,0,0,-1.3333333,1816.3641,142.91307)"
       clip-path="url(#clipPath146)" />
    <path
       id="path147"
       d="m 0,0 c -0.085,-0.936 -0.314,-1.733 -1.254,-1.731 -0.931,0.001 -1.72,0.595 -1.851,1.523 -0.136,0.964 0.496,1.744 1.469,1.783 C -0.633,1.615 -0.191,0.792 0,0"
       style="fill:#ffffff;fill-opacity:1;fill-rule:nonzero;stroke:none"
       transform="matrix(1.3333333,0,0,-1.3333333,1773.326,125.74453)"
       clip-path="url(#clipPath148)" />
    <path
       id="path149"
       d="M 0,0 C -1.392,-0.859 -2.124,-3.525 -4.791,-1.653 -3.282,-0.355 -1.617,-0.245 0,0"
       style="fill:#ffffff;fill-opacity:1;fill-rule:nonzero;stroke:none"
       transform="matrix(1.3333333,0,0,-1.3333333,1777.1384,70.464267)"
       clip-path="url(#clipPath150)" />
    <path
       id="path151"
       d="M 0,0 C 0.259,0.216 0.549,0.409 0.755,-0.01 0.806,-0.113 0.584,-0.352 0.488,-0.529 0.326,-0.353 0.163,-0.177 0,0"
       style="fill:#ffffff;fill-opacity:1;fill-rule:nonzero;stroke:none"
       transform="matrix(1.3333333,0,0,-1.3333333,1762.4036,75.9896)"
       clip-path="url(#clipPath152)" />
  </g>
</svg>
