<?xml version="1.0" encoding="UTF-8" standalone="no"?>
<!-- Created with Inkscape (http://www.inkscape.org/) -->

<svg
   version="1.1"
   id="svg1"
   width="1815.2667"
   height="619.87201"
   viewBox="0 0 1815.2667 619.87201"
   sodipodi:docname="logo samybusiness 2.ai"
   xmlns:inkscape="http://www.inkscape.org/namespaces/inkscape"
   xmlns:sodipodi="http://sodipodi.sourceforge.net/DTD/sodipodi-0.dtd"
   xmlns="http://www.w3.org/2000/svg"
   xmlns:svg="http://www.w3.org/2000/svg">
  <defs
     id="defs1">
    <clipPath
       clipPathUnits="userSpaceOnUse"
       id="clipPath268">
      <path
         d="M 0,464.904 H 1361.455 V 0 H 0 Z"
         transform="translate(-841.51745,-234.691)"
         id="path268" />
    </clipPath>
    <clipPath
       clipPathUnits="userSpaceOnUse"
       id="clipPath270">
      <path
         d="M 0,464.904 H 1361.455 V 0 H 0 Z"
         transform="translate(-1089.449,-381.69311)"
         id="path270" />
    </clipPath>
    <clipPath
       clipPathUnits="userSpaceOnUse"
       id="clipPath272">
      <path
         d="M 0,464.904 H 1361.455 V 0 H 0 Z"
         transform="translate(-1292.2592,-381.21821)"
         id="path272" />
    </clipPath>
    <clipPath
       clipPathUnits="userSpaceOnUse"
       id="clipPath274">
      <path
         d="M 0,464.904 H 1361.455 V 0 H 0 Z"
         transform="translate(-527.68339,-173.3202)"
         id="path274" />
    </clipPath>
    <clipPath
       clipPathUnits="userSpaceOnUse"
       id="clipPath276">
      <path
         d="M 0,464.904 H 1361.455 V 0 H 0 Z"
         transform="translate(-657.12904,-175.6008)"
         id="path276" />
    </clipPath>
    <clipPath
       clipPathUnits="userSpaceOnUse"
       id="clipPath278">
      <path
         d="M 0,464.904 H 1361.455 V 0 H 0 Z"
         transform="translate(-768.46729,-132.68271)"
         id="path278" />
    </clipPath>
    <clipPath
       clipPathUnits="userSpaceOnUse"
       id="clipPath280">
      <path
         d="M 0,464.904 H 1361.455 V 0 H 0 Z"
         transform="translate(-811.5242,-175.6008)"
         id="path280" />
    </clipPath>
    <clipPath
       clipPathUnits="userSpaceOnUse"
       id="clipPath282">
      <path
         d="M 0,464.904 H 1361.455 V 0 H 0 Z"
         transform="translate(-934.8182,-175.6008)"
         id="path282" />
    </clipPath>
    <clipPath
       clipPathUnits="userSpaceOnUse"
       id="clipPath284">
      <path
         d="M 0,464.904 H 1361.455 V 0 H 0 Z"
         transform="translate(-1057.8349,-94.464205)"
         id="path284" />
    </clipPath>
    <clipPath
       clipPathUnits="userSpaceOnUse"
       id="clipPath286">
      <path
         d="M 0,464.904 H 1361.455 V 0 H 0 Z"
         transform="translate(-1167.9281,-132.68271)"
         id="path286" />
    </clipPath>
    <clipPath
       clipPathUnits="userSpaceOnUse"
       id="clipPath288">
      <path
         d="M 0,464.904 H 1361.455 V 0 H 0 Z"
         transform="translate(-1282.79,-132.68271)"
         id="path288" />
    </clipPath>
    <clipPath
       clipPathUnits="userSpaceOnUse"
       id="clipPath290">
      <path
         d="M 0,464.904 H 1361.455 V 0 H 0 Z"
         transform="translate(-576.83779,-382.88071)"
         id="path290" />
    </clipPath>
    <clipPath
       clipPathUnits="userSpaceOnUse"
       id="clipPath292">
      <path
         d="M 0,464.904 H 1361.455 V 0 H 0 Z"
         transform="translate(-473.29219,-214.88601)"
         id="path292" />
    </clipPath>
    <clipPath
       clipPathUnits="userSpaceOnUse"
       id="clipPath294">
      <path
         d="M 0,464.904 H 1361.455 V 0 H 0 Z"
         transform="translate(-595.65724,-232.4263)"
         id="path294" />
    </clipPath>
    <clipPath
       clipPathUnits="userSpaceOnUse"
       id="clipPath296">
      <path
         d="M 0,464.904 H 1361.455 V 0 H 0 Z"
         transform="translate(-580.13861,-268.2847)"
         id="path296" />
    </clipPath>
    <clipPath
       clipPathUnits="userSpaceOnUse"
       id="clipPath298">
      <path
         d="M 0,464.904 H 1361.455 V 0 H 0 Z"
         transform="translate(-467.45659,-331.58771)"
         id="path298" />
    </clipPath>
    <clipPath
       clipPathUnits="userSpaceOnUse"
       id="clipPath300">
      <path
         d="M 0,464.904 H 1361.455 V 0 H 0 Z"
         transform="translate(-1271.38,-205.3759)"
         id="path300" />
    </clipPath>
    <clipPath
       clipPathUnits="userSpaceOnUse"
       id="clipPath302">
      <path
         d="M 0,464.904 H 1361.455 V 0 H 0 Z"
         transform="translate(-1291.3408,-207.4039)"
         id="path302" />
    </clipPath>
    <clipPath
       clipPathUnits="userSpaceOnUse"
       id="clipPath304">
      <path
         d="M 0,464.904 H 1361.455 V 0 H 0 Z"
         transform="translate(-391.13643,-239.5894)"
         id="path304" />
    </clipPath>
    <clipPath
       clipPathUnits="userSpaceOnUse"
       id="clipPath306">
      <path
         d="M 0,464.904 H 1361.455 V 0 H 0 Z"
         transform="translate(-365.45891,-319.92801)"
         id="path306" />
    </clipPath>
    <clipPath
       clipPathUnits="userSpaceOnUse"
       id="clipPath308">
      <path
         d="M 0,464.904 H 1361.455 V 0 H 0 Z"
         transform="translate(-297.41658,-228.31171)"
         id="path308" />
    </clipPath>
    <clipPath
       clipPathUnits="userSpaceOnUse"
       id="clipPath310">
      <path
         d="M 0,464.904 H 1361.455 V 0 H 0 Z"
         transform="translate(-150.49653,-280.9588)"
         id="path310" />
    </clipPath>
    <clipPath
       clipPathUnits="userSpaceOnUse"
       id="clipPath312">
      <path
         d="M 0,464.904 H 1361.455 V 0 H 0 Z"
         transform="translate(-186.6025,-323.16491)"
         id="path312" />
    </clipPath>
    <clipPath
       clipPathUnits="userSpaceOnUse"
       id="clipPath314">
      <path
         d="M 0,464.904 H 1361.455 V 0 H 0 Z"
         transform="translate(-189.6682,-367.61841)"
         id="path314" />
    </clipPath>
    <clipPath
       clipPathUnits="userSpaceOnUse"
       id="clipPath316">
      <path
         d="M 0,464.904 H 1361.455 V 0 H 0 Z"
         transform="translate(-320.71008,-347.19881)"
         id="path316" />
    </clipPath>
    <clipPath
       clipPathUnits="userSpaceOnUse"
       id="clipPath318">
      <path
         d="M 0,464.904 H 1361.455 V 0 H 0 Z"
         transform="translate(-323.60448,-276.7357)"
         id="path318" />
    </clipPath>
    <clipPath
       clipPathUnits="userSpaceOnUse"
       id="clipPath320">
      <path
         d="M 0,464.904 H 1361.455 V 0 H 0 Z"
         transform="translate(-320.30898,-276.87621)"
         id="path320" />
    </clipPath>
    <clipPath
       clipPathUnits="userSpaceOnUse"
       id="clipPath322">
      <path
         d="M 0,464.904 H 1361.455 V 0 H 0 Z"
         transform="translate(-225.31211,-325.56101)"
         id="path322" />
    </clipPath>
    <clipPath
       clipPathUnits="userSpaceOnUse"
       id="clipPath324">
      <path
         d="M 0,464.904 H 1361.455 V 0 H 0 Z"
         transform="translate(-276.83561,-323.37681)"
         id="path324" />
    </clipPath>
    <clipPath
       clipPathUnits="userSpaceOnUse"
       id="clipPath326">
      <path
         d="M 0,464.904 H 1361.455 V 0 H 0 Z"
         transform="translate(-262.79838,-278.83921)"
         id="path326" />
    </clipPath>
    <clipPath
       clipPathUnits="userSpaceOnUse"
       id="clipPath328">
      <path
         d="M 0,464.904 H 1361.455 V 0 H 0 Z"
         transform="translate(-223.60488,-323.25271)"
         id="path328" />
    </clipPath>
    <clipPath
       clipPathUnits="userSpaceOnUse"
       id="clipPath330">
      <path
         d="M 0,464.904 H 1361.455 V 0 H 0 Z"
         transform="translate(-226.72323,-320.49061)"
         id="path330" />
    </clipPath>
    <clipPath
       clipPathUnits="userSpaceOnUse"
       id="clipPath332">
      <path
         d="M 0,464.904 H 1361.455 V 0 H 0 Z"
         transform="translate(-150.46458,-346.55861)"
         id="path332" />
    </clipPath>
    <clipPath
       clipPathUnits="userSpaceOnUse"
       id="clipPath334">
      <path
         d="M 0,464.904 H 1361.455 V 0 H 0 Z"
         transform="translate(-184.45053,-317.03091)"
         id="path334" />
    </clipPath>
    <clipPath
       clipPathUnits="userSpaceOnUse"
       id="clipPath336">
      <path
         d="M 0,464.904 H 1361.455 V 0 H 0 Z"
         transform="translate(-221.21141,-309.35901)"
         id="path336" />
    </clipPath>
    <clipPath
       clipPathUnits="userSpaceOnUse"
       id="clipPath338">
      <path
         d="M 0,464.904 H 1361.455 V 0 H 0 Z"
         transform="translate(-186.6025,-323.16491)"
         id="path338" />
    </clipPath>
    <clipPath
       clipPathUnits="userSpaceOnUse"
       id="clipPath340">
      <path
         d="M 0,464.904 H 1361.455 V 0 H 0 Z"
         transform="translate(-189.6682,-367.61841)"
         id="path340" />
    </clipPath>
    <clipPath
       clipPathUnits="userSpaceOnUse"
       id="clipPath342">
      <path
         d="M 0,464.904 H 1361.455 V 0 H 0 Z"
         transform="translate(-177.81918,-363.17531)"
         id="path342" />
    </clipPath>
    <clipPath
       clipPathUnits="userSpaceOnUse"
       id="clipPath344">
      <path
         d="M 0,464.904 H 1361.455 V 0 H 0 Z"
         transform="translate(-405.34669,-75.143199)"
         id="path344" />
    </clipPath>
    <clipPath
       clipPathUnits="userSpaceOnUse"
       id="clipPath346">
      <path
         d="M 0,464.904 H 1361.455 V 0 H 0 Z"
         transform="translate(-480.92899,-43.799004)"
         id="path346" />
    </clipPath>
    <clipPath
       clipPathUnits="userSpaceOnUse"
       id="clipPath348">
      <path
         d="M 0,464.904 H 1361.455 V 0 H 0 Z"
         transform="translate(-537.40609,-73.681899)"
         id="path348" />
    </clipPath>
    <clipPath
       clipPathUnits="userSpaceOnUse"
       id="clipPath350">
      <path
         d="M 0,464.904 H 1361.455 V 0 H 0 Z"
         transform="translate(-584.16611,-73.681899)"
         id="path350" />
    </clipPath>
    <clipPath
       clipPathUnits="userSpaceOnUse"
       id="clipPath352">
      <path
         d="M 0,464.904 H 1361.455 V 0 H 0 Z"
         transform="translate(-628.14994,-61.516899)"
         id="path352" />
    </clipPath>
    <clipPath
       clipPathUnits="userSpaceOnUse"
       id="clipPath354">
      <path
         d="M 0,464.904 H 1361.455 V 0 H 0 Z"
         transform="translate(-644.99022,-67.179204)"
         id="path354" />
    </clipPath>
    <clipPath
       clipPathUnits="userSpaceOnUse"
       id="clipPath356">
      <path
         d="M 0,464.904 H 1361.455 V 0 H 0 Z"
         transform="translate(-693.97834,-47.196504)"
         id="path356" />
    </clipPath>
    <clipPath
       clipPathUnits="userSpaceOnUse"
       id="clipPath358">
      <path
         d="M 0,464.904 H 1361.455 V 0 H 0 Z"
         transform="translate(-744.39132,-61.516899)"
         id="path358" />
    </clipPath>
    <clipPath
       clipPathUnits="userSpaceOnUse"
       id="clipPath360">
      <path
         d="M 0,464.904 H 1361.455 V 0 H 0 Z"
         transform="translate(-791.07814,-59.616999)"
         id="path360" />
    </clipPath>
    <clipPath
       clipPathUnits="userSpaceOnUse"
       id="clipPath362">
      <path
         d="M 0,464.904 H 1361.455 V 0 H 0 Z"
         transform="translate(-837.03275,-47.196504)"
         id="path362" />
    </clipPath>
    <clipPath
       clipPathUnits="userSpaceOnUse"
       id="clipPath364">
      <path
         d="M 0,464.904 H 1361.455 V 0 H 0 Z"
         transform="translate(-880.5059,-43.799004)"
         id="path364" />
    </clipPath>
    <clipPath
       clipPathUnits="userSpaceOnUse"
       id="clipPath366">
      <path
         d="M 0,464.904 H 1361.455 V 0 H 0 Z"
         transform="translate(-932.15915,-47.196504)"
         id="path366" />
    </clipPath>
    <clipPath
       clipPathUnits="userSpaceOnUse"
       id="clipPath368">
      <path
         d="M 0,464.904 H 1361.455 V 0 H 0 Z"
         transform="translate(-985.42182,-73.681899)"
         id="path368" />
    </clipPath>
    <clipPath
       clipPathUnits="userSpaceOnUse"
       id="clipPath370">
      <path
         d="M 0,464.904 H 1361.455 V 0 H 0 Z"
         transform="translate(-1029.3325,-61.516899)"
         id="path370" />
    </clipPath>
    <clipPath
       clipPathUnits="userSpaceOnUse"
       id="clipPath372">
      <path
         d="M 0,464.904 H 1361.455 V 0 H 0 Z"
         transform="translate(-1122.9244,-76.275399)"
         id="path372" />
    </clipPath>
    <clipPath
       clipPathUnits="userSpaceOnUse"
       id="clipPath374">
      <path
         d="M 0,464.904 H 1361.455 V 0 H 0 Z"
         transform="translate(-1149.3727,-43.799004)"
         id="path374" />
    </clipPath>
    <clipPath
       clipPathUnits="userSpaceOnUse"
       id="clipPath376">
      <path
         d="M 0,464.904 H 1361.455 V 0 H 0 Z"
         transform="translate(-1187.6566,-74.814099)"
         id="path376" />
    </clipPath>
    <clipPath
       clipPathUnits="userSpaceOnUse"
       id="clipPath378">
      <path
         d="M 0,464.904 H 1361.455 V 0 H 0 Z"
         transform="translate(-1212.6433,-90.303505)"
         id="path378" />
    </clipPath>
    <clipPath
       clipPathUnits="userSpaceOnUse"
       id="clipPath380">
      <path
         d="M 0,464.904 H 1361.455 V 0 H 0 Z"
         transform="translate(-1249.6847,-59.616999)"
         id="path380" />
    </clipPath>
  </defs>
  <sodipodi:namedview
     id="namedview1"
     pagecolor="#ffffff"
     bordercolor="#000000"
     borderopacity="0.25"
     inkscape:showpageshadow="2"
     inkscape:pageopacity="0.0"
     inkscape:pagecheckerboard="0"
     inkscape:deskcolor="#d1d1d1">
    <inkscape:page
       x="0"
       y="0"
       inkscape:label="4"
       id="page266"
       width="1815.2667"
       height="619.87201"
       margin="47.439335 81.106667 71.85067 95.993599"
       bleed="0" />
  </sodipodi:namedview>
  <g
     id="layer-MC0"
     inkscape:groupmode="layer"
     inkscape:label="Layer 1"
     transform="translate(-4888.467)">
    <path
       id="path267"
       d="m 0,0 c 1.74,-3.8 1.859,-7.64 0.356,-11.518 -1.506,-3.881 -4.156,-6.69 -7.955,-8.431 -1.9,-0.95 -3.96,-1.424 -6.175,-1.424 -2.85,0 -5.544,0.79 -8.074,2.374 -2.535,1.581 -4.435,3.718 -5.7,6.412 l -52.721,116.13 c -2.06,4.43 -5.147,7.915 -9.262,10.449 -4.119,2.531 -8.55,3.8 -13.299,3.8 -4.91,0 -9.381,-1.269 -13.418,-3.8 -4.037,-2.534 -7.088,-6.019 -9.143,-10.449 l -52.959,-116.13 c -1.744,-3.799 -4.553,-6.412 -8.431,-7.837 -3.881,-1.425 -7.718,-1.265 -11.518,0.475 -3.799,1.741 -6.412,4.55 -7.837,8.431 -1.424,3.878 -1.269,7.718 0.475,11.518 l 52.722,115.892 c 4.59,9.815 11.358,17.652 20.305,23.511 8.942,5.855 18.879,8.787 29.804,8.787 10.764,0 20.661,-2.932 29.685,-8.787 9.025,-5.859 15.752,-13.696 20.186,-23.511 z"
       style="fill:#ffffff;fill-opacity:1;fill-rule:nonzero;stroke:none"
       transform="matrix(1.3333333,0,0,-1.3333333,6010.4899,306.95067)"
       clip-path="url(#clipPath268)" />
    <path
       id="path269"
       d="m 0,0 c 2.69,-1.269 4.868,-3.128 6.531,-5.581 1.662,-2.456 2.493,-5.265 2.493,-8.431 v -139.165 c 0,-4.274 -1.465,-7.877 -4.393,-10.805 -2.932,-2.932 -6.453,-4.394 -10.568,-4.394 -4.119,0 -7.681,1.462 -10.687,4.394 -3.009,2.928 -4.512,6.531 -4.512,10.805 v 103.781 l -75.282,-72.433 c -2.694,-2.694 -6.175,-4.037 -10.45,-4.037 -4.274,0 -7.759,1.343 -10.449,4.037 l -75.282,72.433 v -103.781 c 0,-4.274 -1.507,-7.877 -4.512,-10.805 -3.01,-2.932 -6.572,-4.394 -10.687,-4.394 -4.119,0 -7.64,1.462 -10.568,4.394 -2.931,2.928 -4.393,6.531 -4.393,10.805 v 139.165 c 0,3.166 0.831,5.975 2.493,8.431 1.663,2.453 3.837,4.312 6.531,5.581 2.85,1.265 5.737,1.622 8.668,1.069 2.928,-0.557 5.499,-1.941 7.718,-4.156 l 90.481,-86.919 90.482,86.919 c 2.215,2.215 4.786,3.599 7.718,4.156 C -5.74,1.622 -2.85,1.265 0,0"
       style="fill:#ffffff;fill-opacity:1;fill-rule:nonzero;stroke:none"
       transform="matrix(1.3333333,0,0,-1.3333333,6341.0653,110.94787)"
       clip-path="url(#clipPath270)" />
    <path
       id="path271"
       d="m 0,0 c 3.8,-1.9 6.33,-4.831 7.599,-8.787 1.266,-3.959 0.95,-7.837 -0.949,-11.636 l -21.137,-42.035 c -3.168,-6.019 -7.046,-11.559 -11.636,-16.624 -4.594,-5.069 -9.897,-9.421 -15.912,-13.061 -7.443,-4.594 -15.358,-7.682 -23.748,-9.262 v -51.297 c 0,-4.275 -1.466,-7.878 -4.393,-10.805 -2.932,-2.932 -6.453,-4.394 -10.568,-4.394 -4.119,0 -7.681,1.462 -10.687,4.394 -3.009,2.927 -4.512,6.53 -4.512,10.805 v 51.297 c -8.55,1.74 -16.468,4.827 -23.749,9.262 -5.859,3.64 -11.083,7.992 -15.673,13.061 -4.594,5.065 -8.472,10.605 -11.637,16.624 l -21.374,42.035 c -1.9,3.799 -2.178,7.677 -0.831,11.636 1.343,3.956 3.837,6.887 7.481,8.787 3.64,1.9 7.481,2.174 11.518,0.831 4.037,-1.347 7.005,-3.84 8.905,-7.481 l 21.136,-42.034 c 3.8,-7.6 9.221,-13.537 16.268,-17.811 7.043,-4.275 14.761,-6.412 23.155,-6.412 8.39,0 16.067,2.137 23.036,6.412 6.964,4.274 12.349,10.211 16.148,17.811 l 21.374,42.034 c 1.9,3.641 4.827,6.134 8.787,7.481 C -7.444,2.174 -3.644,1.9 0,0"
       style="fill:#ffffff;fill-opacity:1;fill-rule:nonzero;stroke:none"
       transform="matrix(1.3333333,0,0,-1.3333333,6611.4789,111.58107)"
       clip-path="url(#clipPath272)" />
    <path
       id="path273"
       d="m 0,0 c 3.546,-1.521 6.635,-3.594 9.261,-6.22 2.626,-2.626 4.7,-5.715 6.22,-9.261 1.52,-3.548 2.281,-7.304 2.281,-11.265 0,-3.963 -0.739,-7.671 -2.212,-11.127 -1.475,-3.456 -3.503,-6.52 -6.082,-9.192 2.579,-2.581 4.607,-5.598 6.082,-9.053 1.473,-3.456 2.212,-7.166 2.212,-11.127 v -0.138 c 0,-4.056 -0.761,-7.834 -2.281,-11.335 -1.52,-3.503 -3.594,-6.565 -6.22,-9.192 -2.626,-2.626 -5.715,-4.699 -9.261,-6.22 -3.549,-1.52 -7.304,-2.28 -11.265,-2.28 h -66.071 c -2.397,0 -4.446,0.851 -6.15,2.557 -1.707,1.704 -2.558,3.801 -2.558,6.289 0,2.395 0.851,4.445 2.558,6.151 1.704,1.704 3.753,2.557 6.15,2.557 h 66.071 c 3.131,0 5.805,1.106 8.017,3.317 2.211,2.212 3.317,4.929 3.317,8.156 v 0.138 c 0,3.224 -1.106,5.943 -3.317,8.155 -2.212,2.211 -4.886,3.317 -8.017,3.317 h -66.071 c -2.397,0 -4.446,0.851 -6.15,2.557 -1.707,1.704 -2.558,3.754 -2.558,6.151 0,2.488 0.851,4.583 2.558,6.289 1.704,1.704 3.753,2.557 6.15,2.557 h 66.071 c 3.131,0 5.805,1.106 8.017,3.318 2.211,2.211 3.317,4.928 3.317,8.155 0,3.131 -1.106,5.827 -3.317,8.086 -2.212,2.257 -4.886,3.386 -8.017,3.386 h -66.071 c -2.397,0 -4.446,0.851 -6.15,2.558 -1.707,1.704 -2.558,3.753 -2.558,6.15 0,2.395 0.851,4.469 2.558,6.22 1.704,1.75 3.753,2.627 6.15,2.627 h 66.071 C -7.304,2.281 -3.549,1.52 0,0"
       style="fill:#ffffff;fill-opacity:1;fill-rule:nonzero;stroke:none"
       transform="matrix(1.3333333,0,0,-1.3333333,5592.0445,388.7784)"
       clip-path="url(#clipPath274)" />
    <path
       id="path275"
       d="m 0,0 c 2.395,0 4.445,-0.877 6.151,-2.626 1.704,-1.752 2.557,-3.825 2.557,-6.22 v -40.499 c 0,-3.318 -0.255,-6.544 -0.76,-9.676 -0.508,-3.134 -1.268,-6.129 -2.281,-8.985 -2.028,-6.081 -5.162,-11.427 -9.399,-16.033 -4.423,-4.793 -9.723,-8.432 -15.896,-10.92 -6.174,-2.488 -12.993,-3.732 -20.457,-3.732 h -6.22 c -7.464,0 -14.26,1.244 -20.387,3.732 -6.13,2.488 -11.404,6.127 -15.827,10.92 -4.239,4.606 -7.373,9.952 -9.399,16.033 -2.121,5.806 -3.179,12.026 -3.179,18.661 v 40.499 c 0,2.395 0.875,4.468 2.626,6.22 1.749,1.749 3.823,2.626 6.22,2.626 2.395,0 4.469,-0.877 6.22,-2.626 1.75,-1.752 2.626,-3.825 2.626,-6.22 v -40.499 c 0,-3.871 0.553,-7.696 1.659,-11.473 1.106,-3.779 2.879,-7.166 5.322,-10.159 2.44,-2.996 5.643,-5.438 9.606,-7.326 3.961,-1.89 8.799,-2.834 14.513,-2.834 h 6.22 c 5.806,0 10.689,0.944 14.652,2.834 3.961,1.888 7.164,4.33 9.606,7.326 2.441,2.993 4.216,6.38 5.322,10.159 1.106,3.777 1.659,7.602 1.659,11.473 v 40.499 c 0,2.395 0.874,4.468 2.626,6.22 C -4.471,-0.877 -2.397,0 0,0"
       style="fill:#ffffff;fill-opacity:1;fill-rule:nonzero;stroke:none"
       transform="matrix(1.3333333,0,0,-1.3333333,5764.6387,385.7376)"
       clip-path="url(#clipPath276)" />
    <path
       id="path277"
       d="m 0,0 c 3.546,-1.52 6.635,-3.594 9.261,-6.22 2.626,-2.626 4.7,-5.715 6.22,-9.261 1.52,-3.548 2.281,-7.304 2.281,-11.265 0,-4.056 -0.761,-7.833 -2.281,-11.334 -1.52,-3.503 -3.594,-6.566 -6.22,-9.192 -2.626,-2.626 -5.715,-4.7 -9.261,-6.22 -3.548,-1.52 -7.304,-2.281 -11.265,-2.281 h -60.127 c -2.397,0 -4.47,0.851 -6.22,2.557 -1.751,1.704 -2.626,3.802 -2.626,6.29 0,2.395 0.875,4.444 2.626,6.15 1.75,1.704 3.823,2.557 6.22,2.557 h 60.127 c 3.224,0 5.943,1.106 8.155,3.318 2.212,2.211 3.317,4.928 3.317,8.155 0,3.224 -1.105,5.944 -3.317,8.155 -2.212,2.212 -4.931,3.317 -8.155,3.317 h -45.752 c -4.056,0 -7.833,0.761 -11.334,2.281 -3.503,1.521 -6.566,3.594 -9.192,6.22 -2.626,2.626 -4.699,5.713 -6.22,9.261 -1.52,3.546 -2.28,7.302 -2.28,11.265 0,3.961 0.76,7.717 2.28,11.265 1.521,3.547 3.594,6.657 6.22,9.33 2.626,2.672 5.689,4.769 9.192,6.29 3.501,1.52 7.278,2.28 11.334,2.28 H 3.11 c 2.395,0 4.469,-0.877 6.22,-2.626 1.749,-1.752 2.626,-3.825 2.626,-6.22 0,-2.397 -0.877,-4.447 -2.626,-6.151 C 7.579,26.215 5.505,25.364 3.11,25.364 h -60.127 c -3.226,0 -5.943,-1.13 -8.155,-3.387 -2.211,-2.259 -3.317,-4.999 -3.317,-8.224 0,-3.134 1.106,-5.829 3.317,-8.086 2.212,-2.259 4.929,-3.386 8.155,-3.386 h 45.752 C -7.304,2.281 -3.548,1.521 0,0"
       style="fill:#ffffff;fill-opacity:1;fill-rule:nonzero;stroke:none"
       transform="matrix(1.3333333,0,0,-1.3333333,5913.0897,442.96173)"
       clip-path="url(#clipPath278)" />
    <path
       id="path279"
       d="m 0,0 c 2.395,0 4.468,-0.877 6.22,-2.626 1.749,-1.752 2.626,-3.825 2.626,-6.22 v -80.999 c 0,-2.488 -0.877,-4.585 -2.626,-6.289 -1.752,-1.706 -3.825,-2.557 -6.22,-2.557 -2.397,0 -4.447,0.851 -6.151,2.557 -1.706,1.704 -2.557,3.801 -2.557,6.289 v 80.999 c 0,2.395 0.851,4.468 2.557,6.22 C -4.447,-0.877 -2.397,0 0,0"
       style="fill:#ffffff;fill-opacity:1;fill-rule:nonzero;stroke:none"
       transform="matrix(1.3333333,0,0,-1.3333333,5970.4989,385.7376)"
       clip-path="url(#clipPath280)" />
    <path
       id="path281"
       d="m 0,0 c 2.395,0 4.445,-0.877 6.151,-2.626 1.704,-1.752 2.557,-3.825 2.557,-6.22 v -80.999 c 0,-1.844 -0.484,-3.479 -1.451,-4.906 C 6.289,-96.181 5.021,-97.263 3.456,-98 2.257,-98.462 1.106,-98.691 0,-98.691 c -2.305,0 -4.333,0.782 -6.082,2.35 l -71.461,67.176 v -60.68 c 0,-2.488 -0.853,-4.585 -2.557,-6.289 -1.706,-1.706 -3.756,-2.557 -6.151,-2.557 -2.397,0 -4.47,0.851 -6.22,2.557 -1.751,1.704 -2.626,3.801 -2.626,6.289 v 80.999 c 0,1.749 0.484,3.339 1.451,4.768 0.968,1.428 2.281,2.51 3.94,3.249 1.565,0.736 3.2,0.967 4.907,0.691 1.704,-0.277 3.2,-1.061 4.492,-2.35 l 71.461,-67.038 v 60.68 c 0,2.395 0.851,4.468 2.557,6.22 C -4.585,-0.877 -2.488,0 0,0"
       style="fill:#ffffff;fill-opacity:1;fill-rule:nonzero;stroke:none"
       transform="matrix(1.3333333,0,0,-1.3333333,6134.8909,385.7376)"
       clip-path="url(#clipPath282)" />
    <path
       id="path283"
       d="m 0,0 c 2.395,0 4.469,-0.853 6.22,-2.557 1.749,-1.706 2.626,-3.756 2.626,-6.151 0,-2.488 -0.877,-4.585 -2.626,-6.289 C 4.469,-16.703 2.395,-17.554 0,-17.554 h -86.251 c -2.397,0 -4.447,0.851 -6.151,2.557 -1.706,1.704 -2.557,3.801 -2.557,6.289 0,2.395 0.851,4.445 2.557,6.151 1.704,1.704 3.754,2.557 6.151,2.557 z m 0,40.499 c 2.395,0 4.469,-0.853 6.22,-2.557 1.749,-1.706 2.626,-3.756 2.626,-6.151 0,-2.397 -0.877,-4.47 -2.626,-6.22 C 4.469,23.82 2.395,22.945 0,22.945 h -86.251 c -2.397,0 -4.447,0.875 -6.151,2.626 -1.706,1.75 -2.557,3.823 -2.557,6.22 0,2.395 0.851,4.445 2.557,6.151 1.704,1.704 3.754,2.557 6.151,2.557 z m 0,40.638 c 2.395,0 4.469,-0.877 6.22,-2.627 1.749,-1.751 2.626,-3.825 2.626,-6.22 0,-2.397 -0.877,-4.446 -2.626,-6.15 C 4.469,64.433 2.395,63.582 0,63.582 h -86.251 c -2.397,0 -4.447,0.851 -6.151,2.558 -1.706,1.704 -2.557,3.753 -2.557,6.15 0,2.395 0.851,4.469 2.557,6.22 1.704,1.75 3.754,2.627 6.151,2.627 z"
       style="fill:#ffffff;fill-opacity:1;fill-rule:nonzero;stroke:none"
       transform="matrix(1.3333333,0,0,-1.3333333,6298.9131,493.91973)"
       clip-path="url(#clipPath284)" />
    <path
       id="path285"
       d="m 0,0 c 3.546,-1.52 6.635,-3.594 9.261,-6.22 2.626,-2.626 4.7,-5.715 6.22,-9.261 1.52,-3.548 2.281,-7.304 2.281,-11.265 0,-4.056 -0.761,-7.833 -2.281,-11.334 -1.52,-3.503 -3.594,-6.566 -6.22,-9.192 -2.626,-2.626 -5.715,-4.7 -9.261,-6.22 -3.548,-1.52 -7.304,-2.281 -11.265,-2.281 h -125.158 c -2.398,0 -4.471,0.851 -6.221,2.557 -1.751,1.704 -2.626,3.802 -2.626,6.29 0,2.395 0.875,4.444 2.626,6.15 1.75,1.704 3.823,2.557 6.221,2.557 h 125.158 c 3.224,0 5.943,1.106 8.155,3.318 2.211,2.211 3.317,4.928 3.317,8.155 0,3.224 -1.106,5.944 -3.317,8.155 -2.212,2.212 -4.931,3.317 -8.155,3.317 h -45.752 c -4.056,0 -7.833,0.761 -11.334,2.281 -3.503,1.521 -6.566,3.594 -9.192,6.22 -2.626,2.626 -4.699,5.713 -6.22,9.261 -1.52,3.546 -2.28,7.302 -2.28,11.265 0,3.961 0.76,7.717 2.28,11.265 1.521,3.547 3.594,6.657 6.22,9.33 2.626,2.672 5.689,4.769 9.192,6.29 3.501,1.52 7.278,2.28 11.334,2.28 H 3.11 c 2.395,0 4.469,-0.877 6.22,-2.626 1.749,-1.752 2.626,-3.825 2.626,-6.22 0,-2.397 -0.877,-4.447 -2.626,-6.151 C 7.579,26.215 5.505,25.364 3.11,25.364 h -60.127 c -3.226,0 -5.943,-1.13 -8.155,-3.387 -2.211,-2.259 -3.317,-4.999 -3.317,-8.224 0,-3.134 1.106,-5.829 3.317,-8.086 2.212,-2.259 4.929,-3.386 8.155,-3.386 h 45.752 C -7.304,2.281 -3.548,1.521 0,0"
       style="fill:#ffffff;fill-opacity:1;fill-rule:nonzero;stroke:none"
       transform="matrix(1.3333333,0,0,-1.3333333,6445.7041,442.96173)"
       clip-path="url(#clipPath286)" />
    <path
       id="path287"
       d="m 0,0 c 3.546,-1.52 6.635,-3.594 9.261,-6.22 2.626,-2.626 4.7,-5.715 6.22,-9.261 1.52,-3.548 2.281,-7.304 2.281,-11.265 0,-4.056 -0.761,-7.833 -2.281,-11.334 -1.52,-3.503 -3.594,-6.566 -6.22,-9.192 -2.626,-2.626 -5.715,-4.7 -9.261,-6.22 -3.548,-1.52 -7.304,-2.281 -11.265,-2.281 h -60.127 c -2.397,0 -4.47,0.851 -6.22,2.557 -1.751,1.704 -2.626,3.802 -2.626,6.29 0,2.395 0.875,4.444 2.626,6.15 1.75,1.704 3.823,2.557 6.22,2.557 h 60.127 c 3.224,0 5.943,1.106 8.155,3.318 2.212,2.211 3.317,4.928 3.317,8.155 0,3.224 -1.105,5.944 -3.317,8.155 -2.212,2.212 -4.931,3.317 -8.155,3.317 h -45.752 c -4.056,0 -7.833,0.761 -11.334,2.281 -3.503,1.521 -6.565,3.594 -9.192,6.22 -2.626,2.626 -4.699,5.713 -6.22,9.261 -1.52,3.546 -2.28,7.302 -2.28,11.265 0,3.961 0.76,7.717 2.28,11.265 1.521,3.547 3.594,6.657 6.22,9.33 2.627,2.672 5.689,4.769 9.192,6.29 3.501,1.52 7.278,2.28 11.334,2.28 H 3.11 c 2.395,0 4.469,-0.877 6.22,-2.626 1.749,-1.752 2.626,-3.825 2.626,-6.22 0,-2.397 -0.877,-4.447 -2.626,-6.151 C 7.579,26.215 5.505,25.364 3.11,25.364 h -60.127 c -3.226,0 -5.943,-1.13 -8.155,-3.387 -2.211,-2.259 -3.317,-4.999 -3.317,-8.224 0,-3.134 1.106,-5.829 3.317,-8.086 2.212,-2.259 4.929,-3.386 8.155,-3.386 h 45.752 C -7.304,2.281 -3.548,1.521 0,0"
       style="fill:#ffffff;fill-opacity:1;fill-rule:nonzero;stroke:none"
       transform="matrix(1.3333333,0,0,-1.3333333,6598.8533,442.96173)"
       clip-path="url(#clipPath288)" />
    <path
       id="path289"
       d="m 0,0 -0.337,28.135 45.035,-56.27 -98.174,0.343 V 0 Z"
       style="fill:#ffffff;fill-opacity:1;fill-rule:nonzero;stroke:none"
       transform="matrix(1.3333333,0,0,-1.3333333,5657.5837,109.3644)"
       clip-path="url(#clipPath290)" />
    <path
       id="path291"
       d="M 0,0 0.337,-28.135 -44.698,28.135 53.476,28.1 V 0.364 Z"
       style="fill:#ffffff;fill-opacity:1;fill-rule:nonzero;stroke:none"
       transform="matrix(1.3333333,0,0,-1.3333333,5519.5229,333.35733)"
       clip-path="url(#clipPath292)" />
    <path
       id="path293"
       d="m 0,0 c 2.675,20.185 -4.266,35.634 -19.778,47.301 -6.046,4.547 -13.021,6.707 -20.678,6.685 -22.044,-0.062 -44.09,-0.154 -66.134,0.009 -20.293,0.15 -35.805,8.8 -45.175,27.111 -9.384,18.337 -4.593,42.617 10.699,56.251 0.282,0.252 0.621,0.437 1.402,0.977 -2.944,-7.049 -3.674,-13.816 -2.795,-20.871 2.037,-16.345 14.884,-31.384 30.153,-34.767 2.95,-0.654 6.046,-0.888 9.076,-0.899 22.214,-0.081 44.435,0.297 66.64,-0.176 C -18.45,81.235 -3.871,73.415 5.826,57.745 16.069,41.192 14.807,18.697 3.145,3.611 2.283,2.496 1.295,1.479 0,0"
       style="fill:#ffffff;fill-opacity:1;fill-rule:nonzero;stroke:none"
       transform="matrix(1.3333333,0,0,-1.3333333,5682.6763,309.97027)"
       clip-path="url(#clipPath294)" />
    <path
       id="path295"
       d="m 0,0 c 5.453,-5.947 8.5,-12.444 9.849,-19.736 1.291,-6.979 0.79,-13.834 -1.843,-20.501 -1.105,-2.799 -4.94,-6.612 -7.579,-8.14 -7.363,-4.265 -13.125,-4.719 -21.639,-4.714 -31.873,0.018 -63.747,-0.002 -95.62,10e-4 -6.493,0.001 -11.535,3.406 -13.604,9.135 -1.98,5.486 -0.433,11.522 3.939,15.28 2.843,2.444 6.189,3.298 9.888,3.294 30.686,-0.035 61.379,0.34 92.056,-0.197 C -10.106,-25.832 1.058,-15.634 0,0"
       style="fill:#ffffff;fill-opacity:1;fill-rule:nonzero;stroke:none"
       transform="matrix(1.3333333,0,0,-1.3333333,5661.9848,262.15907)"
       clip-path="url(#clipPath296)" />
    <path
       id="path297"
       d="m 0,0 c -4.453,5.165 -6.978,10.596 -8.202,16.667 -2.084,10.346 0.148,19.704 6.596,28.018 0.841,1.084 2.086,2 3.334,2.598 6.157,2.953 12.749,3.957 19.514,3.963 31.962,0.029 63.924,0.052 95.886,0.046 8.132,-0.001 14.219,-5.936 14.265,-13.779 0.048,-8.094 -5.855,-13.94 -14.265,-13.942 C 86.184,23.563 55.234,23.286 24.296,23.775 10.144,23.999 -0.066,13.52 0,0"
       style="fill:#ffffff;fill-opacity:1;fill-rule:nonzero;stroke:none"
       transform="matrix(1.3333333,0,0,-1.3333333,5511.7421,177.75507)"
       clip-path="url(#clipPath298)" />
    <path
       id="path299"
       d="M 0,0 H 3.613 V -9.776 H 6.037 V 0 H 9.633 V 2.028 H 0 Z"
       style="fill:#ffffff;fill-opacity:1;fill-rule:nonzero;stroke:none"
       transform="matrix(1.3333333,0,0,-1.3333333,6583.64,346.03747)"
       clip-path="url(#clipPath300)" />
    <path
       id="path301"
       d="M 0,0 C 0,0 -2.677,-8.501 -2.764,-8.89 -2.851,-8.495 -5.561,0 -5.561,0 h -3.684 v -11.804 h 2.408 c 0,0 -0.085,9.351 -0.087,9.465 0.042,-0.155 3.137,-9.465 3.137,-9.465 h 2.028 c 0,0 3.068,9.395 3.116,9.581 -0.003,-0.16 -0.09,-9.581 -0.09,-9.581 H 3.692 V 0 Z"
       style="fill:#ffffff;fill-opacity:1;fill-rule:nonzero;stroke:none"
       transform="matrix(1.3333333,0,0,-1.3333333,6610.2543,343.33347)"
       clip-path="url(#clipPath302)" />
    <path
       id="path303"
       d="m 0,0 c 3.793,-65.786 -36.064,-130.762 -103.448,-154.553 -66.114,-23.342 -133.462,1.149 -169.875,45.202 5.001,0.595 9.825,1.169 14.649,1.743 18.656,2.221 36.505,7.483 53.885,14.433 2.089,0.835 3.269,1.346 3.269,1.346 0,0 56.054,-16.1 82.654,-23.777 2.558,-0.738 3.992,-0.445 5.442,1.889 2.475,3.984 5.208,7.824 8.066,11.547 1.555,2.025 1.939,3.646 0.404,5.889 -1.649,2.407 -2.754,5.178 -4.317,7.652 -1.366,2.164 -1.345,3.27 1.227,4.706 19.907,11.121 39.118,23.344 57.416,36.972 17.684,13.17 34.01,27.81 48.39,44.562 C -1.638,-1.691 -0.98,-1.043 0,0"
       style="fill:#ffffff;fill-opacity:1;fill-rule:nonzero;stroke:none"
       transform="matrix(1.3333333,0,0,-1.3333333,5409.9819,300.41947)"
       clip-path="url(#clipPath304)" />
    <path
       id="path305"
       d="M 0,0 C 1.347,0.835 1.993,1.251 2.749,1.919 10.973,1.289 19.151,0.34 26.75,-3.138 38.509,-8.521 42.7,-18.199 38.974,-31.48 35.45,-44.044 28.177,-54.57 20.263,-64.669 c -19.38,-24.73 -43.069,-44.723 -68.949,-62.291 -17.029,-11.56 -34.652,-22.136 -52.795,-31.844 -2.251,-1.204 -2.84,-2.055 -1.366,-4.423 2.728,-4.379 5.076,-8.994 7.564,-13.521 -0.683,-0.683 -2.197,-3.261 -2.197,-3.261 -20.544,5.852 -41.082,11.728 -61.618,17.605 -0.104,0.03 -0.183,0.144 -0.412,0.332 9.653,4.597 19.301,9.038 28.814,13.75 35.578,17.623 69.567,37.801 100.319,63.078 15.907,13.075 30.825,27.159 42.841,44.019 4.114,5.772 7.335,12.006 8.59,19.101 1.561,8.817 -1.904,15.428 -10.028,19.155 C 7.574,-1.385 3.882,-0.729 0,0"
       style="fill:#ffffff;fill-opacity:1;fill-rule:nonzero;stroke:none"
       transform="matrix(1.3333333,0,0,-1.3333333,5375.7452,193.30133)"
       clip-path="url(#clipPath306)" />
    <path
       id="path307"
       d="m 0,0 c -7.008,-4.941 -13.905,-9.986 -20.984,-14.762 -30.534,-20.604 -62.208,-39.131 -96.54,-52.827 -22.332,-8.909 -45.441,-14.186 -69.498,-14.866 -8.444,-0.239 -16.919,0.229 -24.979,3.241 -15.728,5.877 -15.14,18.726 -10.716,30.091 0.892,0 2.829,-0.661 3.264,-0.661 0.431,-7.978 5.914,-11.181 12.616,-13.179 9.017,-2.69 18.126,-1.517 27.163,-0.335 28.563,3.736 54.631,15.07 80.47,26.938 17.439,8.01 33.985,17.611 49.456,29.023 1.956,1.443 2.515,2.434 1.081,4.697 -3.015,4.757 -5.671,9.741 -8.479,14.629 0.591,0.591 2.475,3.509 2.914,3.948 C -36.382,10.927 -18.54,5.889 -0.702,0.84 -0.523,0.789 -0.41,0.503 0,0"
       style="fill:#ffffff;fill-opacity:1;fill-rule:nonzero;stroke:none"
       transform="matrix(1.3333333,0,0,-1.3333333,5285.0221,315.4564)"
       clip-path="url(#clipPath308)" />
    <path
       id="path309"
       d="m 0,0 c 0.984,-2.769 -1.395,-3.889 -2.963,-4.354 -3.265,-0.968 -4.208,-3.873 -5.097,-6.143 -0.799,-2.041 -1.755,-3.808 -2.839,-5.678 -1.588,-2.739 -2.004,-5.633 0.458,-8.543 2.33,-2.755 2.465,-6.33 1.633,-9.708 -0.35,-1.418 -0.3,-2.124 0.916,-2.831 0.943,-0.548 1.614,-1.361 1.63,-2.547 0.016,-1.312 0.795,-2.402 1.763,-2.892 5.351,-2.714 8.976,-7.808 14.494,-10.293 3.379,-1.521 6.694,-1.979 10.158,-0.453 0.428,0.188 0.873,0.438 1.321,0.464 5.438,0.308 10.42,2.093 15.312,4.374 2.369,1.104 4.759,1.469 6.758,-1.303 1.238,-1.718 3.456,-0.998 5.282,-0.581 3.402,0.777 5.798,-0.957 5.862,-4.392 0.026,-1.402 -0.211,-2.808 -0.216,-4.213 -0.015,-4.243 0.33,-4.786 4.254,-6.902 -7.623,-5.22 -15.478,-9.792 -23.744,-13.662 -25.458,-11.919 -52.221,-19.637 -79.806,-24.687 -4.144,-0.759 -15.876,-2.946 -15.876,-2.946 l -1.156,3.749 c 0,0 -7.451,24.987 -8.739,38.114 -3.054,31.115 2.294,60.596 16.568,88.375 3.504,6.819 7.439,13.479 12.375,19.444 1.165,-0.146 1.519,-0.877 1.512,-1.962 -0.056,-9.395 1.373,-18.993 -4.713,-27.426 -1.465,-2.031 -2.17,-4.647 -3.041,-7.06 -1.552,-4.296 -0.869,-5.126 3.662,-5.236 C -29.49,0.351 -14.722,1.562 0,0"
       style="fill:#ffffff;fill-opacity:1;fill-rule:nonzero;stroke:none"
       transform="matrix(1.3333333,0,0,-1.3333333,5089.1287,245.26027)"
       clip-path="url(#clipPath310)" />
    <path
       id="path311"
       d="M 0,0 C -0.205,0.849 -0.678,1.731 -1.754,1.689 -2.798,1.647 -3.475,0.811 -3.329,-0.223 -3.188,-1.218 -2.343,-1.855 -1.344,-1.856 -0.337,-1.858 -0.091,-1.003 0,0 m 34.609,-13.806 c 1.536,-1.459 3.295,-0.845 4.923,-0.851 0.563,-0.002 1.312,0.107 1.17,0.853 -0.086,0.456 -0.63,1.044 -1.083,1.174 -1.776,0.507 -3.346,-0.179 -5.01,-1.176 m -36.761,7.672 c 0.218,-1.191 -0.492,-3.188 1.592,-3.464 1.435,-0.19 1.848,1.387 1.666,2.522 -0.216,1.345 0.194,3.405 -1.968,3.515 -1.504,0.077 -1.182,-1.39 -1.29,-2.573 m -33.954,-36.072 c -14.722,1.562 -29.489,0.351 -44.232,0.708 -4.531,0.11 -5.214,0.94 -3.662,5.236 0.871,2.413 1.576,5.029 3.041,7.06 6.086,8.433 4.657,18.031 4.713,27.426 0.007,1.085 -0.347,1.816 -1.512,1.962 8.485,12.393 18.903,22.911 30.953,31.845 1.848,-2.895 0.505,-6.108 0.917,-9.146 0.192,-1.42 -0.702,-3.369 1.128,-4.04 1.423,-0.523 2.469,0.916 3.551,1.794 1.509,1.225 2.848,2.822 5.071,2.755 3.406,-1.478 -0.034,-3.563 0.331,-5.539 2.773,1.425 5.339,3.81 7.904,3.81 3.804,0 5.101,1.57 5.769,4.678 1.216,-0.279 2.433,-0.557 3.65,-0.836 -3.72,-1.625 -3.432,-7.197 -8.433,-8.102 -1.494,-0.27 -3.891,-2.532 -5.393,-4.132 -2.179,-2.321 0.997,-2.803 2.293,-3.161 4.908,-1.359 6.616,-3.973 5.647,-8.819 -0.36,-1.794 -1.33,-2.818 -2.909,-3.065 -2.653,-0.415 -5.299,-1.034 -8.036,-0.76 -3.583,0.358 -5.025,-0.905 -4.195,-4.309 0.871,-3.57 1.917,-6.898 -0.105,-10.464 -0.685,-1.207 3.515,-4.754 5.023,-4.236 1.275,0.438 2.426,0.67 3.733,0.225 5.076,-1.728 12.549,3.618 12.482,9.147 -0.03,2.493 0.56,4.328 2.634,5.686 1.892,1.239 1.764,3.207 1.625,5.067 -0.15,1.996 0.256,3.138 2.621,2.891 2.348,-0.245 4.206,0.724 5.932,2.433 2.853,2.825 5.33,2.565 7.55,-0.763 2.419,-3.629 5.817,-5.197 9.98,-5.706 1.796,-0.22 4.438,-0.389 4.172,-2.735 -0.216,-1.914 -0.693,-4.732 -4.105,-4.617 -1.04,0.035 -3.156,-0.565 -2.796,-2.025 0.494,-2 2.987,-1.186 4.506,-1.907 1.243,-0.589 1.92,0.321 1.804,1.682 -0.097,1.145 0.21,2.02 1.4,2.535 2.871,1.243 -0.14,5.754 3.595,6.567 -0.192,0.41 -0.339,1.146 -0.582,1.179 -2.792,0.379 -4.154,3.396 -6.936,3.716 C 8.98,2.298 7.238,5.433 5.358,8.397 4.978,8.995 4.753,9.753 5.302,10.346 c 0.534,0.576 1.365,0.463 1.993,0.236 0.981,-0.355 2.038,-0.755 2.79,-1.436 2.356,-2.137 4.614,-4.209 8.066,-4.564 1.465,-0.151 2.689,-1.453 3.179,-3.027 0.542,-1.741 1.709,-3.027 2.858,-4.362 1.872,-2.174 4.823,-3.374 5.69,-6.514 0.148,-0.535 1.654,-1.676 2.301,-0.886 0.834,1.017 1.712,3.449 1.346,3.742 -1.497,1.197 -0.889,2.856 -1.472,4.187 -1.606,3.672 -1.519,3.71 2.554,3.824 0.134,-1.575 1.358,-1.364 2.395,-1.458 -0.661,-2.485 1.329,-1.892 2.549,-2.191 0.19,-0.191 0.38,-0.381 0.57,-0.571 0.131,-2.039 -0.591,-4.63 2.006,-5.472 2.58,-0.837 5.385,-1.966 8.01,0.205 2.198,1.817 3.348,0.322 4.138,-1.53 0.379,-0.889 -0.126,-2.343 1.395,-2.405 1.481,-0.06 2.314,1.117 2.832,2.3 0.547,1.25 0.811,2.623 1.209,3.979 3.227,-3.931 3.41,-5.979 0.806,-9.921 -0.429,-0.649 -0.435,-1.296 -0.52,-1.983 -0.361,-2.927 -2.252,-3.942 -4.931,-3.703 -1.194,0.107 -2.372,0.477 -3.221,-0.667 -1.305,-1.761 -3.112,-1.282 -4.833,-1.148 -0.447,0.035 -0.875,0.467 -1.312,0.466 -4.123,-0.007 -8.082,-0.067 -12.227,1.369 -3.393,1.176 -4.959,-1.444 -4.015,-5.202 0.276,-1.096 0.666,-2.328 -0.477,-3.236 -1.183,-0.941 -2.119,0.01 -3.214,0.373 -4.953,1.642 -9.33,4.988 -15.136,4.121 -3.971,-0.594 -4.693,0.715 -3.717,4.565 0.785,3.094 -2.722,6.912 -5.564,5.669 -3.978,-1.74 -8.287,-2.185 -12.285,-3.795 -2.452,-0.987 -4.991,-1.677 -7.01,-3.49 -2.666,-2.397 -5.841,-2.746 -9.215,-2.265 -1.933,0.276 -3.968,-0.085 -4.123,-2.185 -0.214,-2.904 -2.134,-4.44 -3.665,-6.435 -2.103,-2.74 -1.435,-6.005 -1.158,-9.142"
       style="fill:#ffffff;fill-opacity:1;fill-rule:nonzero;stroke:none"
       transform="matrix(1.3333333,0,0,-1.3333333,5137.27,188.98547)"
       clip-path="url(#clipPath312)" />
    <path
       id="path313"
       d="M 0,0 C -1.733,-0.262 -3.519,-0.381 -5.137,-1.772 -2.277,-3.78 -1.493,-0.921 0,0 m -39.204,-21.06 c -2.223,0.068 -3.562,-1.53 -5.07,-2.754 -1.083,-0.879 -2.128,-2.317 -3.552,-1.795 -1.83,0.672 -0.936,2.621 -1.128,4.041 -0.411,3.038 0.931,6.251 -0.916,9.146 9.754,7.78 20.377,14.068 31.821,19.079 12.388,5.426 25.172,9.753 38.516,11.562 16.15,2.189 32.315,2.285 48.666,-0.165 21.657,-3.246 41.381,-10.813 59.85,-22.193 0.985,-0.607 1.873,-1.372 2.805,-2.064 -1.368,-4.68 -0.411,-9.482 -0.746,-14.217 -9.373,6.273 -18.914,12.229 -29.365,16.622 C 86.501,2.581 70.738,6.232 54.301,7.356 40.822,8.279 27.568,7.043 14.406,4.33 12.696,3.977 9.507,4.302 12.035,0.663 12.999,-0.726 11.55,-2.441 10.379,-3.584 9.559,-4.385 8.358,-5.274 7.253,-4.331 4.658,-2.117 3.283,-3.982 1.752,-5.692 0.497,-7.094 -8.573,-8.115 -10.172,-7.094 c -0.779,0.498 -0.991,1.266 -1.154,2.084 0.103,0.19 0.342,0.445 0.287,0.556 -0.222,0.449 -0.533,0.242 -0.81,0.011 -1.415,-0.293 -2.568,-0.56 -1.219,-2.416 1.674,-2.303 0.894,-3.755 -1.808,-4.622 -3.612,-1.158 -5.829,-3.745 -6.673,-7.465 -1.217,0.278 -2.434,0.557 -3.651,0.836 -1.609,5.315 -2.639,5.754 -6.825,3.154 -2.71,-1.684 -5.254,-3.518 -7.179,-6.104"
       style="fill:#ffffff;fill-opacity:1;fill-rule:nonzero;stroke:none"
       transform="matrix(1.3333333,0,0,-1.3333333,5141.3576,129.71413)"
       clip-path="url(#clipPath314)" />
    <path
       id="path315"
       d="M 0,0 C 0.335,4.734 -0.622,9.536 0.747,14.217 11.179,7.001 21.22,-0.669 29.716,-10.189 c 8.593,-9.629 16.108,-20.003 22.282,-31.349 0.912,-1.676 0.887,-2.832 -0.389,-4.325 -7.676,-8.983 -15.733,-17.609 -24.038,-26.009 -0.329,1.936 -1.87,1.395 -3.04,1.401 -7.212,0.034 -14.424,0.011 -21.637,0.008 2.997,6.693 2.049,14.305 4.915,21.035 1.096,2.573 2.004,5.228 3.144,7.78 0.337,0.755 0.705,2.044 1.848,1.773 0.968,-0.23 1.047,-1.482 1.23,-2.328 0.27,-1.245 0.211,-2.557 0.341,-3.835 0.085,-0.83 -0.849,-2.114 0.454,-2.396 1.589,-0.345 1.903,1.262 2.022,2.308 0.396,3.484 0.726,6.99 0.802,10.493 0.138,6.32 0.141,12.64 -0.577,18.948 -0.183,1.602 -1.035,2.498 -2.01,3.507 C 10.407,-8.367 5.093,-4.31 0,0"
       style="fill:#ffffff;fill-opacity:1;fill-rule:nonzero;stroke:none"
       transform="matrix(1.3333333,0,0,-1.3333333,5316.0801,156.94027)"
       clip-path="url(#clipPath316)" />
    <path
       id="path317"
       d="m 0,0 c 7.212,0.004 14.424,0.026 21.636,-0.008 1.171,-0.005 3.041,-1.4 3.041,-1.4 L 7.033,-19.328 c 0,0 -12.219,-11.088 -18.285,-16.679 -1.316,-1.212 -2.564,-1.688 -4.418,-1.102 -8.998,2.845 -18.04,5.549 -27.097,8.312 -0.175,1.191 0.43,2.221 1.079,2.811 3.94,3.583 3.558,8.555 4.501,13.115 0.186,0.898 0.269,1.724 -0.572,2.131 -0.739,0.357 -1.229,-0.44 -1.755,-0.869 -1.266,-1.035 -2.426,-2.243 -3.814,-3.073 -3.9,-2.333 -5.445,-1.897 -8.095,1.736 -0.742,1.017 -1.695,2.015 -2.776,2.623 -2.017,1.134 -3.436,2.666 -4.533,4.68 -0.83,1.524 -1.927,2.878 -3.658,3.648 -1.063,0.473 -1.917,1.377 -1.868,2.746 0.702,1.594 2.118,1.368 3.452,1.353 4.819,-2.124 8.808,-4.908 9.073,-10.866 0.087,-1.953 1.523,-2.527 2.954,-1.63 4.651,2.915 9.174,6.038 13.713,9.129 0.323,0.22 0.382,0.826 0.564,1.253 10.402,0.05 20.804,0.1 31.206,0.151 C -2.246,-1.044 -1.155,-1.272 0,0"
       style="fill:#ffffff;fill-opacity:1;fill-rule:nonzero;stroke:none"
       transform="matrix(1.3333333,0,0,-1.3333333,5319.9393,250.89107)"
       clip-path="url(#clipPath318)" />
    <path
       id="path319"
       d="m 0,0 c -10.402,-0.05 -20.804,-0.1 -31.206,-0.151 -0.483,1.648 0.846,1.871 1.844,2.453 4.974,2.904 6.153,7.959 7.161,13.03 0.366,1.837 -0.691,3.083 -2.452,3.759 -0.976,0.374 -2.125,0.702 -2.778,1.427 -1.542,1.712 -2.146,1.004 -3.187,-0.561 -2.014,-3.026 -4.131,-2.833 -5.93,0.296 -0.175,0.303 -0.283,0.775 -0.54,0.881 -6.138,2.535 -5.969,4.326 -8.441,9.472 -0.097,0.201 -0.096,0.45 -0.181,0.885 2.885,-0.154 5.594,0.227 6.996,-3.466 1.369,-3.603 4.064,-4.31 7.764,-2.462 1.559,0.779 2.468,0.576 4.015,-0.158 3.595,-1.706 7.503,-1.348 11.228,-0.143 2.108,0.682 7.087,-1.052 7.855,-3.021 1.415,-3.629 2.055,-3.728 5.093,-0.31 C -2.988,14.213 1.703,7.57 0,0"
       style="fill:#ffffff;fill-opacity:1;fill-rule:nonzero;stroke:none"
       transform="matrix(1.3333333,0,0,-1.3333333,5315.5453,250.70373)"
       clip-path="url(#clipPath320)" />
    <path
       id="path321"
       d="m 0,0 c 2.619,1.263 3.461,2.621 1.677,5.622 -1.529,2.569 -1.862,5.831 0.889,8.394 0.484,0.45 0.856,1.181 0.968,1.836 0.238,1.393 0.226,3.434 1.843,3.311 1.594,-0.121 3.738,-0.52 4.582,-2.46 1.384,-3.181 3.147,-3.032 5.343,-0.825 1.312,1.318 2.368,1.36 4.083,0.04 1.661,-1.279 4.156,-1.419 6.179,-2.303 2.314,-1.011 4.064,-2.612 2.853,-5.456 C 27.384,5.732 23.973,4.389 21.685,5.417 16.762,7.629 12.497,7.686 8.276,3.39 6.383,1.463 3.682,-0.558 0.374,-0.394 0.245,-0.264 0.121,-0.133 0,0"
       style="fill:#ffffff;fill-opacity:1;fill-rule:nonzero;stroke:none"
       transform="matrix(1.3333333,0,0,-1.3333333,5188.8828,185.79067)"
       clip-path="url(#clipPath322)" />
    <path
       id="path323"
       d="m 0,0 c -3.305,0.081 -6.088,2.86 -6.034,6.89 0.039,2.983 -0.798,5.127 -3.042,6.975 -0.973,0.802 -1.652,1.97 -2.431,2.996 -3.708,4.886 -3.384,8.027 1.184,12.321 1.16,1.09 2.462,1.414 3.863,0.797 1.492,-0.657 1.909,-2.129 1.728,-3.547 -0.172,-1.347 -0.42,-3.094 -1.32,-3.863 -3.077,-2.624 -0.137,-3.173 1.272,-3.408 4.215,-0.701 5.695,-3.245 5.621,-7.13 C 0.82,10.974 1.378,10.348 2.034,9.629 2.891,8.691 3.699,7.649 4.276,6.523 6.313,2.549 4.535,-0.111 0,0"
       style="fill:#ffffff;fill-opacity:1;fill-rule:nonzero;stroke:none"
       transform="matrix(1.3333333,0,0,-1.3333333,5257.5808,188.70293)"
       clip-path="url(#clipPath324)" />
    <path
       id="path325"
       d="m 0,0 c -1.334,0.015 -2.75,0.241 -3.452,-1.352 -4.071,5.033 -6.106,11.541 -11.687,15.94 1.099,0.227 1.394,1.848 2.915,0.526 C -9.048,12.355 -5.738,9.749 -2.44,7.135 -1.328,6.253 -1.527,5.023 -1.439,3.921 -1.321,2.444 -0.592,1.263 0,0"
       style="fill:#ffffff;fill-opacity:1;fill-rule:nonzero;stroke:none"
       transform="matrix(1.3333333,0,0,-1.3333333,5238.8645,248.0864)"
       clip-path="url(#clipPath326)" />
    <path
       id="path327"
       d="M 0,0 C -1.037,0.094 -2.261,-0.117 -2.395,1.458 -1.165,2.406 0.337,2.04 1.707,2.308 1.828,2.175 1.953,2.044 2.081,1.915 1.388,1.275 0.694,0.638 0,0"
       style="fill:#ffffff;fill-opacity:1;fill-rule:nonzero;stroke:none"
       transform="matrix(1.3333333,0,0,-1.3333333,5186.6065,188.8684)"
       clip-path="url(#clipPath328)" />
    <path
       id="path329"
       d="M 0,0 C -0.19,0.19 -0.38,0.381 -0.57,0.571 -0.104,0.655 0.086,0.465 0,0"
       style="fill:#ffffff;fill-opacity:1;fill-rule:nonzero;stroke:none"
       transform="matrix(1.3333333,0,0,-1.3333333,5190.7643,192.5512)"
       clip-path="url(#clipPath330)" />
    <path
       id="path331"
       d="m 0,0 c 1.924,2.586 4.469,4.42 7.179,6.104 4.185,2.6 5.215,2.16 6.825,-3.155 -0.669,-3.107 -1.966,-4.678 -5.769,-4.678 -2.566,0 -5.131,-2.385 -7.904,-3.809 C -0.035,-3.563 3.406,-1.478 0,0"
       style="fill:#ffffff;fill-opacity:1;fill-rule:nonzero;stroke:none"
       transform="matrix(1.3333333,0,0,-1.3333333,5089.0861,157.79387)"
       clip-path="url(#clipPath332)" />
    <path
       id="path333"
       d="M 0,0 C 0.108,1.183 -0.214,2.65 1.29,2.573 3.452,2.463 3.042,0.403 3.258,-0.942 3.44,-2.077 3.027,-3.654 1.592,-3.464 -0.493,-3.188 0.218,-1.191 0,0"
       style="fill:#ffffff;fill-opacity:1;fill-rule:nonzero;stroke:none"
       transform="matrix(1.3333333,0,0,-1.3333333,5134.4007,197.16413)"
       clip-path="url(#clipPath334)" />
    <path
       id="path335"
       d="M 0,0 C 1.664,0.997 3.234,1.683 5.01,1.176 5.463,1.046 6.007,0.458 6.093,0.002 6.235,-0.744 5.486,-0.853 4.923,-0.851 3.295,-0.845 1.536,-1.459 0,0"
       style="fill:#ffffff;fill-opacity:1;fill-rule:nonzero;stroke:none"
       transform="matrix(1.3333333,0,0,-1.3333333,5183.4152,207.39333)"
       clip-path="url(#clipPath336)" />
    <path
       id="path337"
       d="m 0,0 c -0.091,-1.003 -0.337,-1.858 -1.344,-1.856 -0.999,0.001 -1.844,0.638 -1.985,1.633 -0.146,1.034 0.531,1.87 1.575,1.912 C -0.678,1.731 -0.205,0.849 0,0"
       style="fill:#ffffff;fill-opacity:1;fill-rule:nonzero;stroke:none"
       transform="matrix(1.3333333,0,0,-1.3333333,5137.27,188.98547)"
       clip-path="url(#clipPath338)" />
    <path
       id="path339"
       d="M 0,0 C -1.493,-0.921 -2.277,-3.78 -5.137,-1.772 -3.519,-0.381 -1.733,-0.262 0,0"
       style="fill:#ffffff;fill-opacity:1;fill-rule:nonzero;stroke:none"
       transform="matrix(1.3333333,0,0,-1.3333333,5141.3576,129.71413)"
       clip-path="url(#clipPath340)" />
    <path
       id="path341"
       d="M 0,0 C 0.277,0.231 0.588,0.438 0.81,-0.01 0.864,-0.122 0.626,-0.377 0.523,-0.567 0.349,-0.379 0.175,-0.189 0,0"
       style="fill:#ffffff;fill-opacity:1;fill-rule:nonzero;stroke:none"
       transform="matrix(1.3333333,0,0,-1.3333333,5125.5589,135.63827)"
       clip-path="url(#clipPath342)" />
    <path
       id="path343"
       d="m 0,0 c 2.947,3.969 6.551,7.074 10.813,9.315 4.262,2.24 8.731,3.361 13.407,3.361 5.553,0 10.167,-1.34 13.846,-4.018 3.677,-2.68 6.051,-6.479 7.123,-11.398 H 37.225 C 36.348,0.23 34.716,2.532 32.33,4.164 29.943,5.796 26.898,6.612 23.197,6.612 19.641,6.612 16.317,5.796 13.225,4.164 10.131,2.532 7.513,0.194 5.37,-2.85 3.226,-5.894 1.79,-9.414 1.059,-13.407 c -0.244,-1.267 -0.365,-2.728 -0.365,-4.384 0,-4.774 1.4,-8.561 4.201,-11.361 2.801,-2.801 6.539,-4.201 11.215,-4.201 3.701,0 7.038,0.803 10.01,2.411 2.97,1.607 5.406,3.896 7.306,6.868 h 7.964 c -2.776,-4.871 -6.466,-8.634 -11.069,-11.289 -4.603,-2.655 -9.681,-3.981 -15.233,-3.981 -4.141,0 -7.818,0.864 -11.033,2.593 -3.215,1.729 -5.724,4.165 -7.525,7.307 -1.803,3.141 -2.704,6.758 -2.704,10.849 0,1.705 0.146,3.434 0.438,5.188 C -4.859,-8.439 -2.948,-3.971 0,0"
       style="fill:#ffffff;fill-opacity:1;fill-rule:nonzero;stroke:none"
       transform="matrix(1.3333333,0,0,-1.3333333,5428.9289,519.68107)"
       clip-path="url(#clipPath344)" />
    <path
       id="path345"
       d="m 0,0 c 2.532,1.728 4.517,4.019 5.955,6.868 1.436,2.849 2.155,5.906 2.155,9.169 0,3.701 -1.072,6.54 -3.215,8.512 -2.144,1.973 -4.822,2.959 -8.037,2.959 -3.167,0 -5.991,-0.865 -8.475,-2.593 -2.484,-1.73 -4.409,-4.032 -5.772,-6.905 -1.364,-2.874 -2.046,-5.967 -2.046,-9.279 0,-3.605 1.023,-6.393 3.069,-8.366 2.046,-1.972 4.651,-2.959 7.818,-2.959 3.165,0 6.015,0.864 8.548,2.594 m -18.229,-6.137 c -2.557,1.388 -4.543,3.336 -5.955,5.845 -1.413,2.508 -2.119,5.418 -2.119,8.731 0,4.53 1.047,8.682 3.142,12.457 2.094,3.774 4.98,6.758 8.658,8.95 3.677,2.192 7.781,3.288 12.311,3.288 3.361,0 6.344,-0.694 8.95,-2.082 2.605,-1.389 4.627,-3.337 6.064,-5.845 1.436,-2.51 2.156,-5.443 2.156,-8.804 0,-4.53 -1.072,-8.671 -3.215,-12.421 C 9.619,0.231 6.697,-2.74 2.995,-4.932 -0.707,-7.124 -4.822,-8.219 -9.352,-8.219 c -3.361,0 -6.32,0.694 -8.877,2.082"
       style="fill:#ffffff;fill-opacity:1;fill-rule:nonzero;stroke:none"
       transform="matrix(1.3333333,0,0,-1.3333333,5529.7053,561.47333)"
       clip-path="url(#clipPath346)" />
    <path
       id="path347"
       d="m 0,0 c 2.484,-2.217 3.726,-5.443 3.726,-9.681 0,-1.559 -0.122,-2.947 -0.365,-4.164 l -4.165,-23.6 h -6.575 l 4.018,22.65 c 0.194,1.022 0.293,2.093 0.293,3.214 0,2.971 -0.817,5.236 -2.448,6.795 -1.633,1.558 -3.909,2.338 -6.831,2.338 -3.507,0 -6.492,-1.096 -8.951,-3.287 -2.46,-2.193 -4.055,-5.383 -4.785,-9.572 v 0.146 l -3.945,-22.284 h -6.649 l 7.087,40.039 h 6.648 l -1.022,-5.772 c 1.655,2.093 3.726,3.701 6.21,4.822 2.484,1.12 5.089,1.68 7.817,1.68 C -5.797,3.324 -2.484,2.216 0,0"
       style="fill:#ffffff;fill-opacity:1;fill-rule:nonzero;stroke:none"
       transform="matrix(1.3333333,0,0,-1.3333333,5605.0081,521.62947)"
       clip-path="url(#clipPath348)" />
    <path
       id="path349"
       d="m 0,0 c 2.484,-2.217 3.726,-5.443 3.726,-9.681 0,-1.559 -0.122,-2.947 -0.365,-4.164 l -4.165,-23.6 h -6.575 l 4.018,22.65 c 0.194,1.022 0.293,2.093 0.293,3.214 0,2.971 -0.817,5.236 -2.448,6.795 -1.633,1.558 -3.909,2.338 -6.831,2.338 -3.507,0 -6.492,-1.096 -8.951,-3.287 -2.46,-2.193 -4.055,-5.383 -4.785,-9.572 v 0.146 l -3.946,-22.284 h -6.648 l 7.087,40.039 h 6.648 l -1.022,-5.772 c 1.655,2.093 3.726,3.701 6.21,4.822 2.484,1.12 5.089,1.68 7.817,1.68 C -5.797,3.324 -2.484,2.216 0,0"
       style="fill:#ffffff;fill-opacity:1;fill-rule:nonzero;stroke:none"
       transform="matrix(1.3333333,0,0,-1.3333333,5667.3548,521.62947)"
       clip-path="url(#clipPath350)" />
    <path
       id="path351"
       d="m 0,0 c 0,3.116 -0.986,5.528 -2.959,7.233 -1.973,1.705 -4.542,2.557 -7.708,2.557 -3.41,0 -6.503,-1.108 -9.279,-3.324 -2.777,-2.217 -4.652,-5.273 -5.626,-9.169 H -0.219 C -0.073,-1.73 0,-0.829 0,0 M -0.694,13.48 C 1.765,12.189 3.641,10.386 4.932,8.074 6.222,5.76 6.868,3.116 6.868,0.146 6.868,-0.877 6.745,-2.119 6.502,-3.58 6.307,-4.847 5.991,-6.162 5.553,-7.525 h -32.002 c -0.098,-0.975 -0.146,-1.681 -0.146,-2.119 0,-3.361 1.01,-5.98 3.032,-7.854 2.021,-1.876 4.664,-2.813 7.928,-2.813 2.873,0 5.393,0.669 7.561,2.009 2.167,1.339 3.811,3.129 4.932,5.37 h 7.16 c -1.753,-3.848 -4.445,-6.978 -8.073,-9.389 -3.629,-2.411 -7.83,-3.616 -12.603,-3.616 -5.018,0 -9.049,1.449 -12.092,4.347 -3.045,2.897 -4.567,6.855 -4.567,11.873 0,1.412 0.147,2.922 0.439,4.53 0.73,4.139 2.216,7.768 4.457,10.886 2.239,3.117 5.004,5.516 8.292,7.196 3.288,1.681 6.855,2.521 10.704,2.521 3.361,0 6.271,-0.646 8.731,-1.936"
       style="fill:#ffffff;fill-opacity:1;fill-rule:nonzero;stroke:none"
       transform="matrix(1.3333333,0,0,-1.3333333,5725.9999,537.84947)"
       clip-path="url(#clipPath352)" />
    <path
       id="path353"
       d="m 0,0 c 2.216,3.092 4.956,5.491 8.219,7.197 3.263,1.704 6.795,2.557 10.595,2.557 4.919,0 8.754,-1.194 11.507,-3.58 2.751,-2.387 4.274,-5.699 4.567,-9.937 h -7.161 c -0.244,2.435 -1.23,4.359 -2.959,5.772 -1.729,1.412 -4.055,2.119 -6.977,2.119 -3.799,0 -7.1,-1.304 -9.9,-3.909 -2.802,-2.606 -4.616,-6.296 -5.443,-11.069 -0.245,-1.607 -0.365,-2.947 -0.365,-4.018 0,-3.556 0.949,-6.296 2.849,-8.22 1.899,-1.925 4.431,-2.886 7.598,-2.886 2.923,0 5.467,0.682 7.635,2.046 2.167,1.363 3.836,3.312 5.005,5.845 h 7.16 c -1.753,-4.091 -4.456,-7.368 -8.11,-9.827 -3.653,-2.46 -7.891,-3.69 -12.713,-3.69 -5.017,0 -8.999,1.436 -11.945,4.311 -2.948,2.874 -4.421,6.795 -4.421,11.763 0,1.51 0.147,3.069 0.439,4.676 C -3.69,-6.71 -2.217,-3.094 0,0"
       style="fill:#ffffff;fill-opacity:1;fill-rule:nonzero;stroke:none"
       transform="matrix(1.3333333,0,0,-1.3333333,5748.4536,530.29973)"
       clip-path="url(#clipPath354)" />
    <path
       id="path355"
       d="m 0,0 c -0.146,-0.73 -0.219,-1.364 -0.219,-1.899 0,-1.219 0.377,-2.095 1.132,-2.631 0.755,-0.536 1.984,-0.803 3.69,-0.803 H 9.498 L 8.475,-10.959 H 2.484 c -3.167,0 -5.541,0.608 -7.124,1.826 -1.583,1.217 -2.374,3.215 -2.374,5.991 0,1.071 0.097,2.119 0.292,3.142 l 4.165,23.599 h -5.115 l 0.95,5.48 h 5.188 L 0.219,39.161 H 6.941 L 5.187,29.079 h 10.375 l -0.95,-5.48 H 4.164 Z"
       style="fill:#ffffff;fill-opacity:1;fill-rule:nonzero;stroke:none"
       transform="matrix(1.3333333,0,0,-1.3333333,5813.7711,556.94333)"
       clip-path="url(#clipPath356)" />
    <path
       id="path357"
       d="m 0,0 c 0,3.116 -0.986,5.528 -2.959,7.233 -1.973,1.705 -4.542,2.557 -7.708,2.557 -3.41,0 -6.503,-1.108 -9.279,-3.324 -2.777,-2.217 -4.652,-5.273 -5.626,-9.169 H -0.219 C -0.073,-1.73 0,-0.829 0,0 M -0.694,13.48 C 1.765,12.189 3.641,10.386 4.932,8.074 6.222,5.76 6.868,3.116 6.868,0.146 6.868,-0.877 6.745,-2.119 6.502,-3.58 6.307,-4.847 5.991,-6.162 5.553,-7.525 h -32.002 c -0.098,-0.975 -0.146,-1.681 -0.146,-2.119 0,-3.361 1.01,-5.98 3.032,-7.854 2.021,-1.876 4.664,-2.813 7.928,-2.813 2.873,0 5.393,0.669 7.561,2.009 2.167,1.339 3.811,3.129 4.932,5.37 h 7.161 c -1.754,-3.848 -4.446,-6.978 -8.074,-9.389 -3.629,-2.411 -7.83,-3.616 -12.603,-3.616 -5.018,0 -9.049,1.449 -12.092,4.347 -3.045,2.897 -4.567,6.855 -4.567,11.873 0,1.412 0.147,2.922 0.439,4.53 0.73,4.139 2.216,7.768 4.457,10.886 2.239,3.117 5.004,5.516 8.292,7.196 3.288,1.681 6.855,2.521 10.704,2.521 3.361,0 6.271,-0.646 8.731,-1.936"
       style="fill:#ffffff;fill-opacity:1;fill-rule:nonzero;stroke:none"
       transform="matrix(1.3333333,0,0,-1.3333333,5880.9884,537.84947)"
       clip-path="url(#clipPath358)" />
    <path
       id="path359"
       d="m 0,0 c 0,3.555 -1.059,6.368 -3.178,8.439 -2.119,2.07 -4.812,3.105 -8.074,3.105 -2.484,0 -4.858,-0.584 -7.123,-1.753 -2.265,-1.169 -4.202,-2.875 -5.809,-5.115 -1.607,-2.241 -2.679,-4.871 -3.215,-7.89 -0.195,-1.023 -0.292,-2.144 -0.292,-3.361 0,-3.605 1.047,-6.442 3.142,-8.512 2.093,-2.071 4.773,-3.105 8.037,-3.105 2.484,0 4.859,0.596 7.123,1.789 2.265,1.194 4.212,2.923 5.845,5.188 1.631,2.265 2.715,4.907 3.251,7.927 C -0.098,-2.265 0,-1.169 0,0 m -29.846,7.562 c 2.216,3.093 4.931,5.491 8.147,7.197 3.214,1.704 6.623,2.557 10.228,2.557 3.069,0 5.82,-0.719 8.256,-2.155 C -0.78,13.723 0.95,11.836 1.973,9.498 L 5.699,30.687 H 12.42 L 2.849,-23.38 h -6.721 l 1.388,7.526 c -1.706,-2.388 -3.995,-4.347 -6.868,-5.882 -2.875,-1.534 -6.04,-2.301 -9.498,-2.301 -3.118,0 -5.87,0.668 -8.256,2.009 -2.388,1.339 -4.251,3.251 -5.589,5.735 -1.341,2.484 -2.01,5.358 -2.01,8.622 0,1.461 0.146,2.946 0.438,4.457 0.731,4.091 2.204,7.683 4.421,10.776"
       style="fill:#ffffff;fill-opacity:1;fill-rule:nonzero;stroke:none"
       transform="matrix(1.3333333,0,0,-1.3333333,5943.2375,540.38267)"
       clip-path="url(#clipPath360)" />
    <path
       id="path361"
       d="m 0,0 c -0.146,-0.73 -0.219,-1.364 -0.219,-1.899 0,-1.219 0.377,-2.095 1.133,-2.631 0.754,-0.536 1.984,-0.803 3.689,-0.803 H 9.498 L 8.476,-10.959 H 2.484 c -3.166,0 -5.541,0.608 -7.123,1.826 -1.583,1.217 -2.375,3.215 -2.375,5.991 0,1.071 0.097,2.119 0.293,3.142 l 4.164,23.599 h -5.114 l 0.95,5.48 h 5.187 L 0.219,39.161 H 6.941 L 5.188,29.079 h 10.375 l -0.95,-5.48 H 4.165 Z"
       style="fill:#ffffff;fill-opacity:1;fill-rule:nonzero;stroke:none"
       transform="matrix(1.3333333,0,0,-1.3333333,6004.5103,556.94333)"
       clip-path="url(#clipPath362)" />
    <path
       id="path363"
       d="m 0,0 c 2.532,1.728 4.517,4.019 5.955,6.868 1.436,2.849 2.154,5.906 2.154,9.169 0,3.701 -1.071,6.54 -3.214,8.512 -2.144,1.973 -4.822,2.959 -8.037,2.959 -3.167,0 -5.991,-0.865 -8.475,-2.593 -2.484,-1.73 -4.409,-4.032 -5.772,-6.905 -1.364,-2.874 -2.046,-5.967 -2.046,-9.279 0,-3.605 1.023,-6.393 3.069,-8.366 2.045,-1.972 4.65,-2.959 7.817,-2.959 3.166,0 6.016,0.864 8.549,2.594 m -18.229,-6.137 c -2.557,1.388 -4.543,3.336 -5.955,5.845 -1.413,2.508 -2.119,5.418 -2.119,8.731 0,4.53 1.047,8.682 3.142,12.457 2.094,3.774 4.98,6.758 8.658,8.95 3.677,2.192 7.781,3.288 12.311,3.288 3.361,0 6.344,-0.694 8.95,-2.082 2.605,-1.389 4.627,-3.337 6.064,-5.845 1.436,-2.51 2.156,-5.443 2.156,-8.804 0,-4.53 -1.072,-8.671 -3.215,-12.421 C 9.619,0.231 6.697,-2.74 2.995,-4.932 -0.707,-7.124 -4.822,-8.219 -9.352,-8.219 c -3.361,0 -6.32,0.694 -8.877,2.082"
       style="fill:#ffffff;fill-opacity:1;fill-rule:nonzero;stroke:none"
       transform="matrix(1.3333333,0,0,-1.3333333,6062.4745,561.47333)"
       clip-path="url(#clipPath364)" />
    <path
       id="path365"
       d="m 0,0 c -0.146,-0.73 -0.219,-1.364 -0.219,-1.899 0,-1.219 0.377,-2.095 1.133,-2.631 0.754,-0.536 1.984,-0.803 3.689,-0.803 H 9.498 L 8.476,-10.959 H 2.484 c -3.166,0 -5.541,0.608 -7.123,1.826 -1.583,1.217 -2.375,3.215 -2.375,5.991 0,1.071 0.097,2.119 0.293,3.142 l 4.164,23.599 h -5.114 l 0.95,5.48 h 5.187 L 0.219,39.161 H 6.941 L 5.188,29.079 h 10.375 l -0.95,-5.48 H 4.165 Z"
       style="fill:#ffffff;fill-opacity:1;fill-rule:nonzero;stroke:none"
       transform="matrix(1.3333333,0,0,-1.3333333,6131.3455,556.94333)"
       clip-path="url(#clipPath366)" />
    <path
       id="path367"
       d="m 0,0 c 2.435,-2.217 3.653,-5.419 3.653,-9.608 0,-1.559 -0.122,-2.972 -0.365,-4.237 l -4.165,-23.6 h -6.575 l 4.018,22.65 c 0.194,1.022 0.292,2.093 0.292,3.214 0,2.971 -0.816,5.236 -2.447,6.795 -1.633,1.558 -3.909,2.338 -6.832,2.338 -3.507,0 -6.491,-1.096 -8.95,-3.287 -2.46,-2.193 -4.055,-5.383 -4.785,-9.572 v 0.146 l -3.946,-22.284 h -6.648 l 9.571,54.067 h 6.649 l -3.507,-19.8 c 1.655,2.045 3.762,3.64 6.32,4.785 2.557,1.144 5.247,1.717 8.073,1.717 C -5.651,3.324 -2.436,2.216 0,0"
       style="fill:#ffffff;fill-opacity:1;fill-rule:nonzero;stroke:none"
       transform="matrix(1.3333333,0,0,-1.3333333,6202.3624,521.62947)"
       clip-path="url(#clipPath368)" />
    <path
       id="path369"
       d="m 0,0 c 0,3.116 -0.986,5.528 -2.958,7.233 -1.973,1.705 -4.543,2.557 -7.709,2.557 -3.41,0 -6.503,-1.108 -9.279,-3.324 -2.776,-2.217 -4.652,-5.273 -5.626,-9.169 H -0.219 C -0.073,-1.73 0,-0.829 0,0 M -0.694,13.48 C 1.766,12.189 3.641,10.386 4.932,8.074 6.222,5.76 6.869,3.116 6.869,0.146 6.869,-0.877 6.746,-2.119 6.503,-3.58 6.307,-4.847 5.991,-6.162 5.553,-7.525 h -32.001 c -0.099,-0.975 -0.147,-1.681 -0.147,-2.119 0,-3.361 1.011,-5.98 3.033,-7.854 2.02,-1.876 4.663,-2.813 7.927,-2.813 2.873,0 5.394,0.669 7.562,2.009 2.166,1.339 3.81,3.129 4.931,5.37 h 7.161 c -1.754,-3.848 -4.446,-6.978 -8.074,-9.389 -3.629,-2.411 -7.83,-3.616 -12.603,-3.616 -5.017,0 -9.048,1.449 -12.092,4.347 -3.044,2.897 -4.566,6.855 -4.566,11.873 0,1.412 0.146,2.922 0.438,4.53 0.731,4.139 2.216,7.768 4.457,10.886 2.24,3.117 5.005,5.516 8.293,7.196 3.288,1.681 6.855,2.521 10.703,2.521 3.361,0 6.271,-0.646 8.731,-1.936"
       style="fill:#ffffff;fill-opacity:1;fill-rule:nonzero;stroke:none"
       transform="matrix(1.3333333,0,0,-1.3333333,6260.9099,537.84947)"
       clip-path="url(#clipPath370)" />
    <path
       id="path371"
       d="m 0,0 -19.581,-40.038 h -6.867 l -3.945,31.855 -15.344,-31.855 h -6.868 L -58.084,0 h 6.795 L -48.002,-33.609 -32.221,0 h 6.868 l 3.8,-33.39 L -6.575,0 Z"
       style="fill:#ffffff;fill-opacity:1;fill-rule:nonzero;stroke:none"
       transform="matrix(1.3333333,0,0,-1.3333333,6385.6992,518.17147)"
       clip-path="url(#clipPath372)" />
    <path
       id="path373"
       d="m 0,0 c 2.532,1.728 4.517,4.019 5.955,6.868 1.436,2.849 2.155,5.906 2.155,9.169 0,3.701 -1.072,6.54 -3.215,8.512 -2.144,1.973 -4.822,2.959 -8.037,2.959 -3.167,0 -5.991,-0.865 -8.475,-2.593 -2.484,-1.73 -4.409,-4.032 -5.772,-6.905 -1.364,-2.874 -2.046,-5.967 -2.046,-9.279 0,-3.605 1.024,-6.393 3.069,-8.366 2.045,-1.972 4.65,-2.959 7.818,-2.959 3.165,0 6.015,0.864 8.548,2.594 m -18.229,-6.137 c -2.557,1.388 -4.543,3.336 -5.955,5.845 -1.413,2.508 -2.119,5.418 -2.119,8.731 0,4.53 1.047,8.682 3.142,12.457 2.094,3.774 4.98,6.758 8.658,8.95 3.677,2.192 7.781,3.288 12.311,3.288 3.361,0 6.344,-0.694 8.95,-2.082 2.605,-1.389 4.627,-3.337 6.064,-5.845 1.437,-2.51 2.156,-5.443 2.156,-8.804 0,-4.53 -1.072,-8.671 -3.215,-12.421 C 9.619,0.231 6.697,-2.74 2.995,-4.932 -0.707,-7.124 -4.822,-8.219 -9.352,-8.219 c -3.361,0 -6.32,0.694 -8.877,2.082"
       style="fill:#ffffff;fill-opacity:1;fill-rule:nonzero;stroke:none"
       transform="matrix(1.3333333,0,0,-1.3333333,6420.9636,561.47333)"
       clip-path="url(#clipPath374)" />
    <path
       id="path375"
       d="M 0,0 C 2.436,1.461 5.212,2.192 8.329,2.192 L 7.088,-4.676 H 5.334 c -3.459,0 -6.345,-0.926 -8.658,-2.776 -2.314,-1.852 -3.861,-4.969 -4.639,-9.352 l -3.873,-21.773 h -6.648 l 7.087,40.038 h 6.648 L -6.064,-6.137 C -4.456,-3.507 -2.436,-1.461 0,0"
       style="fill:#ffffff;fill-opacity:1;fill-rule:nonzero;stroke:none"
       transform="matrix(1.3333333,0,0,-1.3333333,6472.0088,520.11987)"
       clip-path="url(#clipPath376)" />
    <path
       id="path377"
       d="M 0,0 -9.571,-54.066 H -16.22 L -6.649,0 Z"
       style="fill:#ffffff;fill-opacity:1;fill-rule:nonzero;stroke:none"
       transform="matrix(1.3333333,0,0,-1.3333333,6505.3244,499.46733)"
       clip-path="url(#clipPath378)" />
    <path
       id="path379"
       d="m 0,0 c 0,3.555 -1.059,6.368 -3.178,8.439 -2.119,2.07 -4.811,3.105 -8.073,3.105 -2.484,0 -4.859,-0.584 -7.124,-1.753 -2.265,-1.169 -4.201,-2.875 -5.808,-5.115 -1.608,-2.241 -2.679,-4.871 -3.215,-7.89 -0.195,-1.023 -0.292,-2.144 -0.292,-3.361 0,-3.605 1.047,-6.442 3.142,-8.512 2.093,-2.071 4.772,-3.105 8.036,-3.105 2.485,0 4.859,0.596 7.124,1.789 2.264,1.194 4.212,2.923 5.845,5.188 1.631,2.265 2.715,4.907 3.251,7.927 C -0.098,-2.265 0,-1.169 0,0 m -29.846,7.562 c 2.216,3.093 4.932,5.491 8.147,7.197 3.215,1.704 6.623,2.557 10.229,2.557 3.068,0 5.819,-0.719 8.256,-2.155 2.434,-1.438 4.164,-3.325 5.187,-5.663 l 3.726,21.189 h 6.722 L 2.85,-23.38 h -6.722 l 1.388,7.526 c -1.705,-2.388 -3.994,-4.347 -6.867,-5.882 -2.876,-1.534 -6.041,-2.301 -9.499,-2.301 -3.117,0 -5.87,0.668 -8.256,2.009 -2.387,1.339 -4.25,3.251 -5.589,5.735 -1.341,2.484 -2.009,5.358 -2.009,8.622 0,1.461 0.145,2.946 0.438,4.457 0.731,4.091 2.203,7.683 4.42,10.776"
       style="fill:#ffffff;fill-opacity:1;fill-rule:nonzero;stroke:none"
       transform="matrix(1.3333333,0,0,-1.3333333,6554.7129,540.38267)"
       clip-path="url(#clipPath380)" />
  </g>
</svg>
